<?xml version="1.0" encoding="UTF-8"?>
<svg version="1.1" xmlns="http://www.w3.org/2000/svg" width="381" height="190">
<path d="M0 0 C3.73914555 2.84212831 5.54773095 6.70453756 6.796875 11.11328125 C7.05136835 17.18930987 5.71381313 21.48417256 1.796875 26.11328125 C1.136875 26.11328125 0.476875 26.11328125 -0.203125 26.11328125 C-0.203125 26.77328125 -0.203125 27.43328125 -0.203125 28.11328125 C-2.513125 28.77328125 -4.823125 29.43328125 -7.203125 30.11328125 C-6.873125 66.74328125 -6.543125 103.37328125 -6.203125 141.11328125 C-3.50690869 134.95658772 -3.50690869 134.95658772 -2.328125 128.86328125 C-1.1367451 120.95685099 1.01899129 113.34458961 3.11474609 105.640625 C4.02459397 102.2695637 4.90239554 98.89047848 5.78125 95.51123047 C7.65026133 88.33291639 9.59047708 81.19697984 11.796875 74.11328125 C13.116875 74.11328125 14.436875 74.11328125 15.796875 74.11328125 C13.72952404 83.23153613 11.5270594 92.29853173 9.0703125 101.3203125 C8.8344342 102.18711639 8.59855591 103.05392029 8.35552979 103.94699097 C7.38403058 107.50747278 6.40868829 111.06686691 5.42773438 114.62475586 C2.73690177 124.40209849 0.10444531 134.03676941 -1.203125 144.11328125 C-0.91308594 143.32824219 -0.62304688 142.54320312 -0.32421875 141.734375 C0.94361647 138.77020275 2.53361884 137.37653741 4.796875 135.11328125 C5.85152149 133.14155085 6.84292664 131.13565177 7.796875 129.11328125 C10.71752112 123.57452607 13.92873723 118.21649401 17.171875 112.86328125 C19.97333913 108.23822254 22.65379352 103.58876791 25.171875 98.80078125 C28.45968517 92.58620548 32.09035007 86.61293746 35.80224609 80.64331055 C38.49778017 76.29692072 41.057506 71.90331369 43.52001953 67.42089844 C45.76242175 63.36828165 48.09655643 59.36870638 50.421875 55.36328125 C50.89882812 54.53957031 51.37578125 53.71585938 51.8671875 52.8671875 C53.74974392 49.61977767 55.63780496 46.37816439 57.5703125 43.16015625 C59.39397298 40.11685022 60.00727744 38.00925681 60.359375 34.48828125 C60.44316406 33.67101563 60.52695312 32.85375 60.61328125 32.01171875 C60.67386719 31.38523438 60.73445312 30.75875 60.796875 30.11328125 C63.436875 30.11328125 66.076875 30.11328125 68.796875 30.11328125 C69.921875 32.42578125 69.921875 32.42578125 70.796875 35.11328125 C68.796875 38.11328125 68.796875 38.11328125 65.796875 39.11328125 C64.38154513 41.22101708 64.38154513 41.22101708 63.109375 43.86328125 C60.87184138 48.15050616 58.49961704 52.27130568 55.921875 56.36328125 C52.56152661 61.75397398 49.53409597 67.25648109 46.58422852 72.88012695 C44.59826034 76.65283012 42.50597574 80.27911054 40.19140625 83.85546875 C38.20541745 87.07087919 36.38555172 90.37448542 34.546875 93.67578125 C31.57574786 99.00564222 28.52927983 104.2742715 25.359375 109.48828125 C21.5465124 115.76937375 17.95477476 122.15775729 14.40893555 128.59277344 C10.97108107 134.826641 7.42436042 140.98739528 3.796875 147.11328125 C4.9725 146.12328125 4.9725 146.12328125 6.171875 145.11328125 C8.796875 143.11328125 8.796875 143.11328125 10.796875 143.11328125 C10.796875 142.45328125 10.796875 141.79328125 10.796875 141.11328125 C11.456875 141.11328125 12.116875 141.11328125 12.796875 141.11328125 C12.796875 140.45328125 12.796875 139.79328125 12.796875 139.11328125 C14.15234375 137.78125 14.15234375 137.78125 15.984375 136.30078125 C21.02616574 132.10941305 25.3492427 127.56167056 29.46484375 122.46875 C29.90441406 122.02144531 30.34398437 121.57414062 30.796875 121.11328125 C31.456875 121.11328125 32.116875 121.11328125 32.796875 121.11328125 C32.796875 120.45328125 32.796875 119.79328125 32.796875 119.11328125 C33.786875 119.11328125 34.776875 119.11328125 35.796875 119.11328125 C36.065 118.47390625 36.333125 117.83453125 36.609375 117.17578125 C37.796875 115.11328125 37.796875 115.11328125 40.796875 114.11328125 C41.126875 113.12328125 41.456875 112.13328125 41.796875 111.11328125 C42.456875 111.11328125 43.116875 111.11328125 43.796875 111.11328125 C44.786875 109.13328125 44.786875 109.13328125 45.796875 107.11328125 C46.456875 107.11328125 47.116875 107.11328125 47.796875 107.11328125 C48.126875 106.12328125 48.456875 105.13328125 48.796875 104.11328125 C49.456875 104.11328125 50.116875 104.11328125 50.796875 104.11328125 C51.10625 103.47390625 51.415625 102.83453125 51.734375 102.17578125 C52.796875 100.11328125 52.796875 100.11328125 53.796875 99.11328125 C55.46304615 99.07264293 57.13075595 99.07056025 58.796875 99.11328125 C57.45053043 103.51949985 55.60313126 105.54405827 51.796875 108.11328125 C51.136875 108.11328125 50.476875 108.11328125 49.796875 108.11328125 C49.796875 108.77328125 49.796875 109.43328125 49.796875 110.11328125 C48.17584532 111.82436814 46.50184037 113.48581431 44.796875 115.11328125 C44.075 115.87640625 43.353125 116.63953125 42.609375 117.42578125 C40.796875 119.11328125 40.796875 119.11328125 38.796875 119.11328125 C38.796875 119.77328125 38.796875 120.43328125 38.796875 121.11328125 C38.136875 121.11328125 37.476875 121.11328125 36.796875 121.11328125 C36.466875 122.10328125 36.136875 123.09328125 35.796875 124.11328125 C34.203125 125.6484375 34.203125 125.6484375 32.296875 127.17578125 C29.61581099 129.29049892 29.61581099 129.29049892 27.796875 132.11328125 C27.136875 132.11328125 26.476875 132.11328125 25.796875 132.11328125 C25.796875 132.77328125 25.796875 133.43328125 25.796875 134.11328125 C25.136875 134.11328125 24.476875 134.11328125 23.796875 134.11328125 C23.796875 134.77328125 23.796875 135.43328125 23.796875 136.11328125 C18.32068452 141.11328125 18.32068452 141.11328125 15.796875 141.11328125 C15.136875 142.76328125 14.476875 144.41328125 13.796875 146.11328125 C12.806875 146.11328125 11.816875 146.11328125 10.796875 146.11328125 C10.796875 146.77328125 10.796875 147.43328125 10.796875 148.11328125 C10.136875 148.11328125 9.476875 148.11328125 8.796875 148.11328125 C8.796875 148.77328125 8.796875 149.43328125 8.796875 150.11328125 C9.725 149.80390625 10.653125 149.49453125 11.609375 149.17578125 C13.671875 148.48828125 15.734375 147.80078125 17.796875 147.11328125 C18.126875 146.12328125 18.456875 145.13328125 18.796875 144.11328125 C20.776875 143.78328125 22.756875 143.45328125 24.796875 143.11328125 C24.796875 142.45328125 24.796875 141.79328125 24.796875 141.11328125 C25.93125 140.74203125 27.065625 140.37078125 28.234375 139.98828125 C32.58000642 138.38766612 36.08616983 136.03381191 39.81640625 133.3203125 C41.796875 132.11328125 41.796875 132.11328125 44.796875 132.11328125 C45.126875 131.12328125 45.456875 130.13328125 45.796875 129.11328125 C47.43685701 128.3834311 49.1103761 127.7280525 50.796875 127.11328125 C52.73137292 126.04066159 54.64725334 124.93402116 56.546875 123.80078125 C57.59359375 123.18332031 58.6403125 122.56585938 59.71875 121.9296875 C60.73453125 121.33027344 61.7503125 120.73085937 62.796875 120.11328125 C64.4589541 119.14701337 66.12508924 118.18765627 67.796875 117.23828125 C68.4775 116.84898438 69.158125 116.4596875 69.859375 116.05859375 C71.796875 115.11328125 71.796875 115.11328125 73.984375 114.66796875 C74.5825 114.48492187 75.180625 114.301875 75.796875 114.11328125 C76.126875 113.12328125 76.456875 112.13328125 76.796875 111.11328125 C79.19860968 109.76603953 81.55362123 108.57745832 84.046875 107.42578125 C90.73139582 104.22837846 96.98775447 100.67722177 103.22265625 96.6796875 C105.796875 95.11328125 105.796875 95.11328125 108.796875 94.11328125 C108.7040625 92.93765625 108.7040625 92.93765625 108.609375 91.73828125 C108.7021875 90.43890625 108.7021875 90.43890625 108.796875 89.11328125 C112.21891983 86.83191803 113.92982226 86.6275548 117.9140625 86.73046875 C119.796875 87.11328125 119.796875 87.11328125 121.921875 89.30078125 C122.796875 92.11328125 122.796875 92.11328125 122.109375 94.86328125 C120.796875 97.11328125 120.796875 97.11328125 118.796875 98.11328125 C117.8275 98.01015625 116.858125 97.90703125 115.859375 97.80078125 C110.1341728 97.71763516 105.53280088 101.24421412 100.796875 104.11328125 C99.53810547 104.86738281 99.53810547 104.86738281 98.25390625 105.63671875 C96.60305378 106.62880497 94.95464404 107.62496631 93.30859375 108.625 C90.77423308 110.12669738 88.20543987 111.53379965 85.609375 112.92578125 C81.23963399 115.28201415 76.9762429 117.78607073 72.734375 120.36328125 C66.293039 124.27343733 59.74248332 127.95529212 53.14282227 131.59057617 C48.50401023 134.15035199 43.936137 136.79293612 39.4140625 139.5546875 C35.91161481 141.64047351 32.35509419 143.62455095 28.796875 145.61328125 C22.72912285 149.00496264 16.72420821 152.47993998 10.796875 156.11328125 C19.06839009 156.11328125 28.22646411 153.16800845 35.796875 150.11328125 C38.0656166 149.54012548 40.34197168 149.05439947 42.6328125 148.578125 C48.49259246 147.3194358 54.18231842 145.40419431 59.8203125 143.390625 C74.43908271 138.28687891 74.43908271 138.28687891 81.796875 140.11328125 C78.57332854 143.19667352 75.42525967 143.75364175 71.203125 144.58984375 C68.92713244 145.08494603 66.80807525 145.72529945 64.609375 146.48828125 C53.18222606 150.4300504 41.41901659 153.33702829 29.65625 156.08203125 C28.55953979 156.33823242 28.55953979 156.33823242 27.44067383 156.59960938 C26.02698508 156.92874527 24.61280077 157.25576416 23.19799805 157.58007812 C19.11421663 158.52698499 15.06672178 159.57077388 11.02368164 160.6796875 C10.04218643 160.9485376 9.06069122 161.2173877 8.04945374 161.49438477 C7.30610275 161.69862061 6.56275177 161.90285645 5.796875 162.11328125 C20.4437886 162.23012351 35.09064046 162.31827358 49.73792553 162.37234211 C56.53906529 162.39811534 63.33991534 162.43324826 70.14086914 162.49047852 C76.70254685 162.5456689 83.26400242 162.57469265 89.82592201 162.58766747 C92.33102472 162.5969154 94.8361107 162.61497422 97.34108543 162.64193153 C100.84648801 162.67815914 104.35064191 162.68322896 107.85620117 162.6809082 C108.89485825 162.69888458 109.93351532 162.71686096 111.00364685 162.73538208 C116.92603774 162.73443339 116.92603774 162.73443339 121.84077454 159.59465027 C122.48628769 158.77579849 123.13180084 157.95694672 123.796875 157.11328125 C126.74952715 156.75772628 128.83939331 157.46163274 131.796875 158.11328125 C131.796875 158.77328125 131.796875 159.43328125 131.796875 160.11328125 C132.456875 160.11328125 133.116875 160.11328125 133.796875 160.11328125 C134.03509667 162.97194134 134.22463212 165.31147209 133.796875 168.11328125 C131.33715083 170.92439458 129.8890338 171.98326234 126.171875 172.42578125 C123.796875 172.11328125 123.796875 172.11328125 120.796875 171.11328125 C120.466875 169.46328125 120.136875 167.81328125 119.796875 166.11328125 C34.656875 166.11328125 -50.483125 166.11328125 -138.203125 166.11328125 C-139.193125 168.09328125 -139.193125 168.09328125 -140.203125 170.11328125 C-143.76728707 172.4893893 -145.23664736 172.47692082 -149.3203125 171.8515625 C-151.203125 171.11328125 -151.203125 171.11328125 -153.328125 167.86328125 C-154.203125 164.11328125 -154.203125 164.11328125 -153.640625 161.30078125 C-151.96466933 158.75041392 -151.11058604 158.00167212 -148.203125 157.11328125 C-145.203125 156.73828125 -145.203125 156.73828125 -142.203125 157.11328125 C-139.828125 158.98828125 -139.828125 158.98828125 -138.203125 161.11328125 C-138.203125 161.77328125 -138.203125 162.43328125 -138.203125 163.11328125 C-100.913125 163.11328125 -63.623125 163.11328125 -25.203125 163.11328125 C-25.203125 162.45328125 -25.203125 161.79328125 -25.203125 161.11328125 C-26.9975 160.92765625 -26.9975 160.92765625 -28.828125 160.73828125 C-32.48727323 160.29710735 -35.7066008 159.27878932 -39.203125 158.11328125 C-39.863125 158.44328125 -40.523125 158.77328125 -41.203125 159.11328125 C-41.203125 158.45328125 -41.203125 157.79328125 -41.203125 157.11328125 C-42.14671875 157.03980469 -42.14671875 157.03980469 -43.109375 156.96484375 C-48.67894805 156.4783449 -53.80697138 155.55867954 -59.203125 154.11328125 C-59.863125 154.11328125 -60.523125 154.11328125 -61.203125 154.11328125 C-61.203125 153.45328125 -61.203125 152.79328125 -61.203125 152.11328125 C-67.143125 151.12328125 -73.083125 150.13328125 -79.203125 149.11328125 C-79.203125 148.45328125 -79.203125 147.79328125 -79.203125 147.11328125 C-82.503125 146.78328125 -85.803125 146.45328125 -89.203125 146.11328125 C-89.203125 145.45328125 -89.203125 144.79328125 -89.203125 144.11328125 C-90.7809375 143.92765625 -90.7809375 143.92765625 -92.390625 143.73828125 C-95.66271271 143.20187343 -98.20848576 142.4744809 -101.203125 141.11328125 C-101.203125 140.45328125 -101.203125 139.79328125 -101.203125 139.11328125 C-95.84404547 138.77248128 -91.54853185 140.00657242 -86.515625 141.61328125 C-80.9706002 143.45995118 -80.9706002 143.45995118 -75.203125 144.11328125 C-75.203125 144.77328125 -75.203125 145.43328125 -75.203125 146.11328125 C-73.51594961 146.42752911 -71.82836551 146.7395828 -70.140625 147.05078125 C-69.13 147.23769531 -68.119375 147.42460937 -67.078125 147.6171875 C-64.94427011 147.98539344 -62.7941168 148.2615979 -60.640625 148.48828125 C-57.52380651 149.05497552 -55.21694946 149.87965114 -52.328125 151.11328125 C-48.24879904 152.83772359 -44.76859865 153.52015257 -40.37890625 153.83203125 C-36.74591751 154.30164559 -33.58828937 155.74733773 -30.203125 157.11328125 C-29.543125 157.11328125 -28.883125 157.11328125 -28.203125 157.11328125 C-28.86957031 156.76136719 -29.53601563 156.40945312 -30.22265625 156.046875 C-35.11567214 153.42586089 -39.87688926 150.72685446 -44.515625 147.67578125 C-49.85711006 144.20458562 -55.39969785 141.43492016 -61.13671875 138.69140625 C-67.56933426 135.38086273 -67.56933426 135.38086273 -69.203125 132.11328125 C-70.52461327 131.73571317 -71.86148421 131.41142365 -73.203125 131.11328125 C-74.8775489 130.46634475 -76.54615121 129.80368699 -78.203125 129.11328125 C-78.203125 128.45328125 -78.203125 127.79328125 -78.203125 127.11328125 C-79.4715625 126.74203125 -79.4715625 126.74203125 -80.765625 126.36328125 C-89.05912439 123.34746329 -96.24379667 117.85435471 -103.453125 112.86328125 C-106.02878061 111.08886135 -106.02878061 111.08886135 -108.4375 110.28515625 C-111.28577944 109.07825818 -113.73656885 107.53035487 -116.31811523 105.83764648 C-123.91848781 100.90099728 -130.02459314 98.59310332 -139.203125 98.11328125 C-140.015625 94.92578125 -140.015625 94.92578125 -140.203125 91.11328125 C-137.765625 88.17578125 -137.765625 88.17578125 -135.203125 86.11328125 C-128.328125 88.98828125 -128.328125 88.98828125 -127.203125 90.11328125 C-127.16248668 91.7794524 -127.160404 93.4471622 -127.203125 95.11328125 C-126.16478516 95.49613281 -126.16478516 95.49613281 -125.10546875 95.88671875 C-121.82371924 97.27362231 -118.84731843 98.94983027 -115.765625 100.73828125 C-114.51697722 101.45972219 -113.26827785 102.18107387 -112.01953125 102.90234375 C-111.38547363 103.27004883 -110.75141602 103.63775391 -110.09814453 104.01660156 C-107.14040361 105.728296 -104.1714333 107.41997347 -101.203125 109.11328125 C-100.03251211 109.78248216 -98.86193926 110.45175312 -97.69140625 111.12109375 C-95.39878846 112.43134367 -93.10421986 113.73797531 -90.80859375 115.04296875 C-84.28972661 118.75313542 -77.79664082 122.50359759 -71.328125 126.30078125 C-70.63871826 126.70474121 -69.94931152 127.10870117 -69.23901367 127.52490234 C-65.79467258 129.55244875 -62.38496731 131.62000233 -59.0078125 133.7578125 C-56.14234253 135.55915527 -53.26631215 137.16447652 -50.203125 138.61328125 C-45.66277993 140.83114566 -41.43965547 143.3680855 -37.203125 146.11328125 C-33.94254122 148.16062455 -30.81508817 149.77169493 -27.203125 151.11328125 C-28.028125 150.51515625 -28.853125 149.91703125 -29.703125 149.30078125 C-30.528125 148.57890625 -31.353125 147.85703125 -32.203125 147.11328125 C-32.203125 146.12328125 -32.203125 145.13328125 -32.203125 144.11328125 C-32.863125 144.11328125 -33.523125 144.11328125 -34.203125 144.11328125 C-34.863125 143.12328125 -35.523125 142.13328125 -36.203125 141.11328125 C-37.193125 140.78328125 -38.183125 140.45328125 -39.203125 140.11328125 C-39.203125 139.45328125 -39.203125 138.79328125 -39.203125 138.11328125 C-40.0384375 137.77296875 -40.0384375 137.77296875 -40.890625 137.42578125 C-43.86472088 135.73778089 -45.92321365 133.64651608 -48.203125 131.11328125 C-48.203125 130.45328125 -48.203125 129.79328125 -48.203125 129.11328125 C-49.193125 128.78328125 -50.183125 128.45328125 -51.203125 128.11328125 C-52.22610422 127.13680108 -53.22216752 126.13196787 -54.203125 125.11328125 C-55.09 124.43265625 -55.976875 123.75203125 -56.890625 123.05078125 C-57.65375 122.41140625 -58.416875 121.77203125 -59.203125 121.11328125 C-59.203125 120.45328125 -59.203125 119.79328125 -59.203125 119.11328125 C-60.688125 118.61828125 -60.688125 118.61828125 -62.203125 118.11328125 C-63.8515625 116.44140625 -63.8515625 116.44140625 -65.578125 114.36328125 C-70.53182312 108.07385825 -70.53182312 108.07385825 -77.203125 104.11328125 C-77.203125 103.12328125 -77.203125 102.13328125 -77.203125 101.11328125 C-77.863125 101.11328125 -78.523125 101.11328125 -79.203125 101.11328125 C-79.203125 100.45328125 -79.203125 99.79328125 -79.203125 99.11328125 C-76.09012005 98.79441442 -74.67436666 98.75360249 -72.140625 100.6875 C-71.50125 101.38488281 -70.861875 102.08226563 -70.203125 102.80078125 C-69.5121875 103.53554687 -68.82125 104.2703125 -68.109375 105.02734375 C-67.4803125 105.71570313 -66.85125 106.4040625 -66.203125 107.11328125 C-62.56791157 110.83937501 -58.77275472 114.23175998 -54.77734375 117.5625 C-54.25785156 118.07425781 -53.73835938 118.58601563 -53.203125 119.11328125 C-53.203125 119.77328125 -53.203125 120.43328125 -53.203125 121.11328125 C-52.65914063 121.32855469 -52.11515625 121.54382813 -51.5546875 121.765625 C-48.39383387 123.57707766 -46.07548704 126.06824148 -43.578125 128.67578125 C-40.23909598 132.34042141 -40.23909598 132.34042141 -36.203125 135.11328125 C-36.203125 135.77328125 -36.203125 136.43328125 -36.203125 137.11328125 C-35.543125 137.11328125 -34.883125 137.11328125 -34.203125 137.11328125 C-34.203125 137.77328125 -34.203125 138.43328125 -34.203125 139.11328125 C-33.213125 139.44328125 -32.223125 139.77328125 -31.203125 140.11328125 C-29.51601077 141.75924635 -27.8485628 143.42565274 -26.203125 145.11328125 C-25.543125 145.44328125 -24.883125 145.77328125 -24.203125 146.11328125 C-24.55099208 144.1379138 -24.55099208 144.1379138 -25.203125 142.11328125 C-25.863125 141.78328125 -26.523125 141.45328125 -27.203125 141.11328125 C-27.203125 140.12328125 -27.203125 139.13328125 -27.203125 138.11328125 C-27.863125 138.11328125 -28.523125 138.11328125 -29.203125 138.11328125 C-29.203125 136.79328125 -29.203125 135.47328125 -29.203125 134.11328125 C-29.863125 134.11328125 -30.523125 134.11328125 -31.203125 134.11328125 C-31.698125 131.63828125 -31.698125 131.63828125 -32.203125 129.11328125 C-32.863125 129.11328125 -33.523125 129.11328125 -34.203125 129.11328125 C-34.595 128.10265625 -34.986875 127.09203125 -35.390625 126.05078125 C-36.80529258 122.73887258 -38.6494011 120.0226081 -40.80859375 117.1328125 C-44.90590822 111.19916661 -47.98503848 104.54945429 -51.203125 98.11328125 C-51.76 97.22640625 -52.316875 96.33953125 -52.890625 95.42578125 C-54.203125 93.11328125 -54.203125 93.11328125 -54.203125 90.11328125 C-54.863125 90.11328125 -55.523125 90.11328125 -56.203125 90.11328125 C-56.203125 89.12328125 -56.203125 88.13328125 -56.203125 87.11328125 C-56.863125 87.11328125 -57.523125 87.11328125 -58.203125 87.11328125 C-58.45707031 86.59378906 -58.71101563 86.07429688 -58.97265625 85.5390625 C-60.44930699 82.54704732 -61.91211259 79.59408436 -63.640625 76.73828125 C-65.09147352 74.30085573 -66.3335834 71.8480206 -67.578125 69.30078125 C-69.57097863 65.24844363 -71.78310818 61.46395266 -74.28515625 57.70703125 C-75.203125 56.11328125 -75.203125 56.11328125 -75.203125 54.11328125 C-75.863125 54.11328125 -76.523125 54.11328125 -77.203125 54.11328125 C-77.54085937 53.41460937 -77.87859375 52.7159375 -78.2265625 51.99609375 C-78.67257813 51.08601563 -79.11859375 50.1759375 -79.578125 49.23828125 C-80.01898438 48.33335938 -80.45984375 47.4284375 -80.9140625 46.49609375 C-82.10815199 44.01793653 -82.10815199 44.01793653 -84.203125 42.11328125 C-84.203125 41.12328125 -84.203125 40.13328125 -84.203125 39.11328125 C-85.853125 38.78328125 -87.503125 38.45328125 -89.203125 38.11328125 C-90.51548943 33.69896455 -90.51548943 33.69896455 -89.203125 31.23828125 C-86.10053243 29.49307293 -83.5757543 30.41330158 -80.203125 31.11328125 C-80.1825 32.18578125 -80.161875 33.25828125 -80.140625 34.36328125 C-79.32201201 40.76640476 -75.56993835 45.75016036 -72.203125 51.11328125 C-70.65012618 53.64814579 -69.11249435 56.192106 -67.578125 58.73828125 C-67.19164795 59.37660889 -66.8051709 60.01493652 -66.40698242 60.67260742 C-63.83074224 64.96191739 -61.5526591 69.32809256 -59.38671875 73.83984375 C-57.69391654 77.09136482 -55.6352547 80.05199702 -53.5625 83.0703125 C-49.203125 89.62190194 -49.203125 89.62190194 -49.203125 93.11328125 C-48.543125 93.11328125 -47.883125 93.11328125 -47.203125 93.11328125 C-46.80738281 94.1084375 -46.41164063 95.10359375 -46.00390625 96.12890625 C-44.20621719 100.32035468 -41.86397377 104.04324362 -39.390625 107.86328125 C-35.93522672 113.29149775 -32.66552427 118.74785541 -29.65234375 124.4375 C-27.40213914 128.59219045 -24.95640659 132.63000518 -22.5234375 136.6796875 C-21.203125 139.11328125 -21.203125 139.11328125 -21.203125 141.11328125 C-20.543125 141.11328125 -19.883125 141.11328125 -19.203125 141.11328125 C-18.873125 142.10328125 -18.543125 143.09328125 -18.203125 144.11328125 C-19.69548794 133.56855891 -22.35064982 123.55696292 -25.2890625 113.3359375 C-26.37401692 109.51077768 -27.203125 106.09313164 -27.203125 102.11328125 C-27.863125 102.11328125 -28.523125 102.11328125 -29.203125 102.11328125 C-29.326875 101.06140625 -29.450625 100.00953125 -29.578125 98.92578125 C-30.02848887 95.29960059 -30.02848887 95.29960059 -31.140625 92.80078125 C-33.48321135 86.87541578 -34.53794463 80.47485424 -34.203125 74.11328125 C-33.213125 74.11328125 -32.223125 74.11328125 -31.203125 74.11328125 C-30.71354167 75.94921875 -30.22395833 77.78515625 -29.734375 79.62109375 C-29.41428467 80.8212915 -29.09419434 82.02148926 -28.7644043 83.25805664 C-28.04935054 85.9394353 -27.33471701 88.62092552 -26.62036133 91.30249023 C-24.93188042 97.6394206 -23.24174963 103.97587044 -21.53890991 110.30895996 C-21.00049789 112.31174249 -20.46300682 114.31477002 -19.92578125 116.31787109 C-19.25441295 118.81998473 -18.58133934 121.32164167 -17.90625 123.82275391 C-17.44025391 125.56177979 -17.44025391 125.56177979 -16.96484375 127.3359375 C-16.562052 128.83265991 -16.562052 128.83265991 -16.15112305 130.35961914 C-14.74620911 135.92247047 -13.49326018 141.52269548 -12.203125 147.11328125 C-11.708125 89.19828125 -11.708125 89.19828125 -11.203125 30.11328125 C-13.513125 29.45328125 -15.823125 28.79328125 -18.203125 28.11328125 C-22.17461374 25.94701467 -23.67270872 23.62559307 -25.203125 19.48828125 C-26.68709039 13.74745514 -25.85283873 9.3662225 -23.203125 4.11328125 C-18.15097907 -2.9035881 -7.71502252 -3.10515977 0 0 Z M-20.203125 9.11328125 C-21.63616564 11.97936254 -21.50956655 13.92628908 -21.203125 17.11328125 C-18.81290958 21.31676354 -16.54038742 25.11159736 -12.015625 27.05078125 C-7.68824875 27.14694517 -4.63405345 25.70427286 -1.203125 23.11328125 C0.96817694 20.6157215 2.16727725 18.37001871 2.796875 15.11328125 C2.29243062 10.45863541 0.63966666 7.12958884 -2.328125 3.55078125 C-10.37776736 -0.47403993 -15.58038056 1.81594895 -20.203125 9.11328125 Z M-24.203125 146.11328125 C-24.203125 147.10328125 -24.203125 148.09328125 -24.203125 149.11328125 C-23.213125 148.78328125 -22.223125 148.45328125 -21.203125 148.11328125 C-22.193125 147.45328125 -23.183125 146.79328125 -24.203125 146.11328125 Z M-3.203125 146.11328125 C-2.203125 149.11328125 -2.203125 149.11328125 -2.203125 149.11328125 Z M-27.203125 152.11328125 C-25.718125 153.10328125 -25.718125 153.10328125 -24.203125 154.11328125 C-24.203125 153.45328125 -24.203125 152.79328125 -24.203125 152.11328125 C-25.193125 152.11328125 -26.183125 152.11328125 -27.203125 152.11328125 Z " fill="#EFEFEF" transform="translate(199.203125,5.88671875)"/>
<path d="M0 0 C-3.22354646 3.08339227 -6.37161533 3.6403605 -10.59375 4.4765625 C-12.86974256 4.97166478 -14.98879975 5.6120182 -17.1875 6.375 C-28.61464894 10.31676915 -40.37785841 13.22374704 -52.140625 15.96875 C-52.87176514 16.13955078 -53.60290527 16.31035156 -54.35620117 16.48632812 C-55.76988992 16.81546402 -57.18407423 17.14248291 -58.59887695 17.46679688 C-62.68265837 18.41370374 -66.73015322 19.45749263 -70.77319336 20.56640625 C-71.75468857 20.83525635 -72.73618378 21.10410645 -73.74742126 21.38110352 C-74.49077225 21.58533936 -75.23412323 21.7895752 -76 22 C-61.3530864 22.11684226 -46.70623454 22.20499233 -32.05894947 22.25906086 C-25.25780971 22.28483409 -18.45695966 22.31996701 -11.65600586 22.37719727 C-5.09432815 22.43238765 1.46712742 22.4614114 8.02904701 22.47438622 C10.53414972 22.48363415 13.0392357 22.50169297 15.54421043 22.52865028 C19.04961301 22.56487789 22.55376691 22.56994771 26.05932617 22.56762695 C27.61731178 22.59459152 27.61731178 22.59459152 29.20677185 22.62210083 C35.12916274 22.62115214 35.12916274 22.62115214 40.04389954 19.48136902 C40.68941269 18.66251724 41.33492584 17.84366547 42 17 C44.95265215 16.64444503 47.04251831 17.34835149 50 18 C50 18.66 50 19.32 50 20 C50.66 20 51.32 20 52 20 C52.23822167 22.85866009 52.42775712 25.19819084 52 28 C49.54027583 30.81111333 48.0921588 31.86998109 44.375 32.3125 C42 32 42 32 39 31 C38.67 29.35 38.34 27.7 38 26 C-47.14 26 -132.28 26 -220 26 C-220.66 27.32 -221.32 28.64 -222 30 C-225.56416207 32.37610805 -227.03352236 32.36363957 -231.1171875 31.73828125 C-233 31 -233 31 -235.125 27.75 C-236 24 -236 24 -235.4375 21.1875 C-233.76154433 18.63713267 -232.90746104 17.88839087 -230 17 C-227 16.625 -227 16.625 -224 17 C-221.625 18.875 -221.625 18.875 -220 21 C-220 21.66 -220 22.32 -220 23 C-182.71 23 -145.42 23 -107 23 C-107 22.34 -107 21.68 -107 21 C-108.65 21 -110.3 21 -112 21 C-112 20.67 -112 20.34 -112 20 C-109.69 20 -107.38 20 -105 20 C-105 20.99 -105 21.98 -105 23 C-105.33 23.33 -105.66 23.66 -106 24 C-98.41 24.33 -90.82 24.66 -83 25 C-83.33 23.68 -83.66 22.36 -84 21 C-83.01 21 -82.02 21 -81 21 C-81 20.01 -81 19.02 -81 18 C-81.66 17.67 -82.32 17.34 -83 17 C-77.18524285 13.72408048 -72.75479274 11.2657834 -66 12 C-67.33333333 13.33333333 -68.66666667 14.66666667 -70 16 C-61.6839006 14.57697814 -53.84906078 13.16716488 -46 10 C-43.7312584 9.42684423 -41.45490332 8.94111822 -39.1640625 8.46484375 C-33.30428254 7.20615455 -27.61455658 5.29091306 -21.9765625 3.27734375 C-7.35779229 -1.82640234 -7.35779229 -1.82640234 0 0 Z " fill="#DDDDDD" transform="translate(281,146)"/>
<path d="M0 0 C0.020625 1.0725 0.04125 2.145 0.0625 3.25 C0.88111299 9.65312351 4.63318665 14.63687911 8 20 C9.55299882 22.53486454 11.09063065 25.07882475 12.625 27.625 C13.01147705 28.26332764 13.3979541 28.90165527 13.79614258 29.55932617 C16.37238276 33.84863614 18.6504659 38.21481131 20.81640625 42.7265625 C22.50920846 45.97808357 24.5678703 48.93871577 26.640625 51.95703125 C31 58.50862069 31 58.50862069 31 62 C31.66 62 32.32 62 33 62 C33.39574219 62.99515625 33.79148438 63.9903125 34.19921875 65.015625 C35.99690781 69.20707343 38.33915123 72.92996237 40.8125 76.75 C44.26789828 82.1782165 47.53760073 87.63457416 50.55078125 93.32421875 C52.80098586 97.4789092 55.24671841 101.51672393 57.6796875 105.56640625 C59 108 59 108 59 110 C59.66 110 60.32 110 61 110 C61.33 110.99 61.66 111.98 62 113 C60.50763706 102.45527766 57.85247518 92.44368167 54.9140625 82.22265625 C53.82910808 78.39749643 53 74.97985039 53 71 C52.34 71 51.68 71 51 71 C50.87625 69.948125 50.7525 68.89625 50.625 67.8125 C50.17463613 64.18631934 50.17463613 64.18631934 49.0625 61.6875 C46.71991365 55.76213453 45.66518037 49.36157299 46 43 C46.99 43 47.98 43 49 43 C49.48958333 44.8359375 49.97916667 46.671875 50.46875 48.5078125 C50.9488855 50.30786743 50.9488855 50.30786743 51.4387207 52.14428711 C52.15420063 54.82718044 52.86877895 57.5103119 53.58276367 60.19360352 C55.26516652 66.51356099 56.95088792 72.83244809 58.66421509 79.144104 C59.20344274 81.13130659 59.74067666 83.11903811 60.27734375 85.10693359 C60.9466214 87.58357659 61.61954985 90.05923717 62.296875 92.53369141 C64.56951773 100.9676949 66.37883821 109.42069458 68 118 C67.34 118 66.68 118 66 118 C66 118.66 66 119.32 66 120 C65.01 120 64.02 120 63 120 C62.67 119.34 62.34 118.68 62 118 C62 118.66 62 119.32 62 120 C61.34 120 60.68 120 60 120 C57.31360498 117.06938726 55.8274667 114.86151126 55 111 C54.01 110.505 54.01 110.505 53 110 C53 109.01 53 108.02 53 107 C52.34 107 51.68 107 51 107 C51 105.68 51 104.36 51 103 C50.34 103 49.68 103 49 103 C48.67 101.35 48.34 99.7 48 98 C47.34 98 46.68 98 46 98 C45.608125 96.989375 45.21625 95.97875 44.8125 94.9375 C43.39783242 91.62559133 41.5537239 88.90932685 39.39453125 86.01953125 C35.29721678 80.08588536 32.21808652 73.43617304 29 67 C28.443125 66.113125 27.88625 65.22625 27.3125 64.3125 C26 62 26 62 26 59 C25.34 59 24.68 59 24 59 C24 58.01 24 57.02 24 56 C23.34 56 22.68 56 22 56 C21.74605469 55.48050781 21.49210937 54.96101563 21.23046875 54.42578125 C19.75381801 51.43376607 18.29101241 48.48080311 16.5625 45.625 C15.11165148 43.18757448 13.8695416 40.73473935 12.625 38.1875 C10.63214637 34.13516238 8.42001682 30.35067141 5.91796875 26.59375 C5 25 5 25 5 23 C4.34 23 3.68 23 3 23 C2.66226563 22.30132812 2.32453125 21.60265625 1.9765625 20.8828125 C1.53054687 19.97273438 1.08453125 19.06265625 0.625 18.125 C0.18414062 17.22007813 -0.25671875 16.31515625 -0.7109375 15.3828125 C-1.90502699 12.90465528 -1.90502699 12.90465528 -4 11 C-4 10.01 -4 9.02 -4 8 C-5.65 7.67 -7.3 7.34 -9 7 C-10.31236443 2.5856833 -10.31236443 2.5856833 -9 0.125 C-5.89740743 -1.62020832 -3.3726293 -0.69997967 0 0 Z " fill="#A7A7A7" transform="translate(119,37)"/>
<path d="M0 0 C3.73914555 2.84212831 5.54773095 6.70453756 6.796875 11.11328125 C7.05136835 17.18930987 5.71381313 21.48417256 1.796875 26.11328125 C1.136875 26.11328125 0.476875 26.11328125 -0.203125 26.11328125 C-0.203125 26.77328125 -0.203125 27.43328125 -0.203125 28.11328125 C-2.513125 28.77328125 -4.823125 29.43328125 -7.203125 30.11328125 C-6.873125 69.38328125 -6.543125 108.65328125 -6.203125 149.11328125 C-6.863125 149.11328125 -7.523125 149.11328125 -8.203125 149.11328125 C-8.533125 122.71328125 -8.863125 96.31328125 -9.203125 69.11328125 C-9.533125 97.49328125 -9.863125 125.87328125 -10.203125 155.11328125 C-10.863125 155.11328125 -11.523125 155.11328125 -12.203125 155.11328125 C-11.873125 113.86328125 -11.543125 72.61328125 -11.203125 30.11328125 C-13.513125 29.45328125 -15.823125 28.79328125 -18.203125 28.11328125 C-22.17461374 25.94701467 -23.67270872 23.62559307 -25.203125 19.48828125 C-26.68709039 13.74745514 -25.85283873 9.3662225 -23.203125 4.11328125 C-18.15097907 -2.9035881 -7.71502252 -3.10515977 0 0 Z M-20.203125 9.11328125 C-21.63616564 11.97936254 -21.50956655 13.92628908 -21.203125 17.11328125 C-18.81290958 21.31676354 -16.54038742 25.11159736 -12.015625 27.05078125 C-7.68824875 27.14694517 -4.63405345 25.70427286 -1.203125 23.11328125 C0.96817694 20.6157215 2.16727725 18.37001871 2.796875 15.11328125 C2.29243062 10.45863541 0.63966666 7.12958884 -2.328125 3.55078125 C-10.37776736 -0.47403993 -15.58038056 1.81594895 -20.203125 9.11328125 Z " fill="#959595" transform="translate(199.203125,5.88671875)"/>
<path d="M0 0 C2.64 0 5.28 0 8 0 C9.125 2.3125 9.125 2.3125 10 5 C8 8 8 8 5 9 C3.58467013 11.10773583 3.58467013 11.10773583 2.3125 13.75 C0.07496638 18.03722491 -2.29725796 22.15802443 -4.875 26.25 C-8.23534839 31.64069273 -11.26277903 37.14319984 -14.21264648 42.7668457 C-16.19861466 46.53954887 -18.29089926 50.16582929 -20.60546875 53.7421875 C-22.59145755 56.95759794 -24.41132328 60.26120417 -26.25 63.5625 C-29.22111964 68.89234753 -32.26728748 74.1611852 -35.4375 79.375 C-38.81045353 84.92474546 -41.99972142 90.55733793 -45.125 96.25 C-48.83783844 103.01105511 -52.72558055 109.57421712 -57 116 C-58.32 115.01 -59.64 114.02 -61 113 C-60.4468998 109.12829857 -58.70189633 107.70189633 -56 105 C-54.94535351 103.0282696 -53.95394836 101.02237052 -53 99 C-50.07935388 93.46124482 -46.86813777 88.10321276 -43.625 82.75 C-40.82353587 78.12494129 -38.14308148 73.47548666 -35.625 68.6875 C-32.33718983 62.47292423 -28.70652493 56.49965621 -24.99462891 50.5300293 C-22.29909483 46.18363947 -19.739369 41.79003244 -17.27685547 37.30761719 C-15.03445325 33.2550004 -12.70031857 29.25542513 -10.375 25.25 C-9.65957031 24.01443359 -9.65957031 24.01443359 -8.9296875 22.75390625 C-7.04713108 19.50649642 -5.15907004 16.26488314 -3.2265625 13.046875 C-1.40290202 10.00356897 -0.78959756 7.89597556 -0.4375 4.375 C-0.35371094 3.55773438 -0.26992188 2.74046875 -0.18359375 1.8984375 C-0.09271484 0.95871094 -0.09271484 0.95871094 0 0 Z " fill="#AFAFAF" transform="translate(260,36)"/>
<path d="M0 0 C6.875 2.875 6.875 2.875 8 4 C8.04063832 5.66617115 8.042721 7.33388095 8 9 C8.69222656 9.25523438 9.38445312 9.51046875 10.09765625 9.7734375 C13.37940576 11.16034106 16.35580657 12.83654902 19.4375 14.625 C20.67829769 15.34259962 21.91918579 16.06004295 23.16015625 16.77734375 C23.79324707 17.14456543 24.42633789 17.51178711 25.07861328 17.89013672 C26.96288721 18.97856229 28.85301451 20.05587971 30.74609375 21.12890625 C36.91551497 24.62680281 43.02571995 28.17646076 49 32 C48.67 32.99 48.34 33.98 48 35 C48.66 35 49.32 35 50 35 C50 35.66 50 36.32 50 37 C44.94469476 35.8333911 42.55451942 34.6590641 39 31 C35.18536191 28.62318704 31.20206328 26.57712229 27.15234375 24.6328125 C24.83874638 23.4344436 22.75367618 22.23157523 20.58984375 20.80859375 C12.38700926 15.4454168 5.97239376 12.52132244 -4 12 C-4.8125 8.8125 -4.8125 8.8125 -5 5 C-2.5625 2.0625 -2.5625 2.0625 0 0 Z " fill="#BCBCBC" transform="translate(64,92)"/>
<path d="M0 0 C2.95117639 0.523383 4.91852922 1.11461124 7.5625 2.5625 C9.76073541 6.65921145 9.78029095 10.59499866 8.9375 15.125 C7 17.75 7 17.75 3.9375 19.125 C-0.81973791 19.75818753 -4.00654677 19.82896882 -8.0625 17.125 C-8.0625 16.465 -8.0625 15.805 -8.0625 15.125 C-8.7225 14.795 -9.3825 14.465 -10.0625 14.125 C-10.44358364 9.7044298 -10.72216101 6.34225764 -8.1875 2.5625 C-4.77530796 -0.09900979 -4.10910822 -0.24885294 0 0 Z " fill="#E0E0E0" transform="translate(190.0625,9.875)"/>
<path d="M0 0 C3.11300495 -0.31886683 4.52875834 -0.35967876 7.0625 1.57421875 C7.701875 2.27160156 8.34125 2.96898438 9 3.6875 C9.6909375 4.42226562 10.381875 5.15703125 11.09375 5.9140625 C11.7228125 6.60242188 12.351875 7.29078125 13 8 C16.63521343 11.72609376 20.43037028 15.11847873 24.42578125 18.44921875 C25.20501953 19.21685547 25.20501953 19.21685547 26 20 C26 20.66 26 21.32 26 22 C26.54398438 22.21527344 27.08796875 22.43054688 27.6484375 22.65234375 C30.80929113 24.46379641 33.12763796 26.95496023 35.625 29.5625 C38.96402902 33.22714016 38.96402902 33.22714016 43 36 C43 36.66 43 37.32 43 38 C43.66 38 44.32 38 45 38 C45 38.66 45 39.32 45 40 C45.99 40.33 46.98 40.66 48 41 C49.70779973 42.62449243 51.37550757 44.29220027 53 46 C53.66 46.66 54.32 47.32 55 48 C54.625 50.625 54.625 50.625 54 53 C51.31654249 51.65827124 49.23328142 49.99819916 47 48 C47 47.01 47 46.02 47 45 C46.34 45 45.68 45 45 45 C44.34 44.01 43.68 43.02 43 42 C42.01 41.67 41.02 41.34 40 41 C40 40.34 40 39.68 40 39 C39.443125 38.773125 38.88625 38.54625 38.3125 38.3125 C35.33840412 36.62449964 33.27991135 34.53323483 31 32 C31 31.34 31 30.68 31 30 C30.01 29.67 29.02 29.34 28 29 C26.97702078 28.02351983 25.98095748 27.01868662 25 26 C24.113125 25.319375 23.22625 24.63875 22.3125 23.9375 C21.549375 23.298125 20.78625 22.65875 20 22 C20 21.34 20 20.68 20 20 C19.01 19.67 18.02 19.34 17 19 C15.3515625 17.328125 15.3515625 17.328125 13.625 15.25 C8.67130188 8.960577 8.67130188 8.960577 2 5 C2 4.01 2 3.02 2 2 C1.34 2 0.68 2 0 2 C0 1.34 0 0.68 0 0 Z " fill="#DADADA" transform="translate(120,105)"/>
<path d="M0 0 C2.375 1.875 2.375 1.875 4 4 C4 4.66 4 5.32 4 6 C37 6 70 6 104 6 C104 6.33 104 6.66 104 7 C54.5 7.495 54.5 7.495 4 8 C3.67 9.32 3.34 10.64 3 12 C1.17241587 14.1199976 -0.14354095 14.90848321 -2.9375 15.20703125 C-5.21294194 15.1191925 -6.89616438 14.88067538 -9 14 C-11.3272294 10.44070797 -12.28115448 8.40577238 -11.4375 4.1875 C-8.57441954 -0.16936157 -5.02409771 -0.62801221 0 0 Z " fill="#CACACA" transform="translate(57,163)"/>
<path d="M0 0 C1.8828125 0.3828125 1.8828125 0.3828125 4.0078125 2.5703125 C4.8828125 5.3828125 4.8828125 5.3828125 4.1953125 8.1328125 C2.8828125 10.3828125 2.8828125 10.3828125 0.8828125 11.3828125 C-0.0865625 11.2796875 -1.0559375 11.1765625 -2.0546875 11.0703125 C-7.77873414 10.98718319 -12.38314042 14.51230605 -17.1171875 17.3828125 C-17.96796875 17.89714844 -18.81875 18.41148438 -19.6953125 18.94140625 C-21.33571477 19.93441706 -22.97506074 20.92917519 -24.61328125 21.92578125 C-28.67542816 24.28955785 -32.8832919 26.3469393 -37.1171875 28.3828125 C-37.1171875 27.3928125 -37.1171875 26.4028125 -37.1171875 25.3828125 C-38.7671875 25.7128125 -40.4171875 26.0428125 -42.1171875 26.3828125 C-40.49364819 23.13573387 -37.0321552 22.25746562 -33.8671875 20.7578125 C-27.19902557 17.52619738 -20.92660757 13.94694507 -14.69140625 9.94921875 C-12.1171875 8.3828125 -12.1171875 8.3828125 -9.1171875 7.3828125 C-9.1790625 6.5990625 -9.2409375 5.8153125 -9.3046875 5.0078125 C-9.211875 3.7084375 -9.211875 3.7084375 -9.1171875 2.3828125 C-5.69514267 0.10144928 -3.98424024 -0.10291395 0 0 Z " fill="#D8D8D8" transform="translate(317.1171875,92.6171875)"/>
<path d="M0 0 C1.32 0 2.64 0 4 0 C0.92147801 13.55412502 -2.6268022 26.95529459 -6.29370117 40.3605957 C-8.9225085 49.98603414 -11.46647149 59.57325708 -13.43725586 69.35864258 C-14 72 -14 72 -15 75 C-15.99 74.67 -16.98 74.34 -18 74 C-18.28782144 69.29891648 -17.79072174 66.26807126 -15.78125 62.03515625 C-14.84954363 59.60806115 -14.4972598 57.32360379 -14.125 54.75 C-12.9336201 46.84356974 -10.77788371 39.23130836 -8.68212891 31.52734375 C-7.77228103 28.15628245 -6.89447946 24.77719723 -6.015625 21.39794922 C-4.14661367 14.21963514 -2.20639792 7.08369859 0 0 Z " fill="#999999" transform="translate(211,80)"/>
<path d="M0 0 C1.2065625 0.0309375 1.2065625 0.0309375 2.4375 0.0625 C1.09115543 4.4687186 -0.75624374 6.49327702 -4.5625 9.0625 C-5.2225 9.0625 -5.8825 9.0625 -6.5625 9.0625 C-6.5625 9.7225 -6.5625 10.3825 -6.5625 11.0625 C-8.18352968 12.77358689 -9.85753463 14.43503306 -11.5625 16.0625 C-12.284375 16.825625 -13.00625 17.58875 -13.75 18.375 C-15.5625 20.0625 -15.5625 20.0625 -17.5625 20.0625 C-17.5625 20.7225 -17.5625 21.3825 -17.5625 22.0625 C-18.2225 22.0625 -18.8825 22.0625 -19.5625 22.0625 C-19.8925 23.0525 -20.2225 24.0425 -20.5625 25.0625 C-22.15625 26.59765625 -22.15625 26.59765625 -24.0625 28.125 C-26.74356401 30.23971767 -26.74356401 30.23971767 -28.5625 33.0625 C-29.2225 33.0625 -29.8825 33.0625 -30.5625 33.0625 C-30.5625 33.7225 -30.5625 34.3825 -30.5625 35.0625 C-31.2225 35.0625 -31.8825 35.0625 -32.5625 35.0625 C-32.5625 35.7225 -32.5625 36.3825 -32.5625 37.0625 C-38.03869048 42.0625 -38.03869048 42.0625 -40.5625 42.0625 C-41.5525 44.5375 -41.5525 44.5375 -42.5625 47.0625 C-43.5525 47.0625 -44.5425 47.0625 -45.5625 47.0625 C-45.5625 47.7225 -45.5625 48.3825 -45.5625 49.0625 C-47.2125 48.7325 -48.8625 48.4025 -50.5625 48.0625 C-49.1875 46.0625 -49.1875 46.0625 -47.5625 44.0625 C-46.9025 44.0625 -46.2425 44.0625 -45.5625 44.0625 C-45.5625 43.4025 -45.5625 42.7425 -45.5625 42.0625 C-44.9025 42.0625 -44.2425 42.0625 -43.5625 42.0625 C-43.5625 41.4025 -43.5625 40.7425 -43.5625 40.0625 C-42.20703125 38.73046875 -42.20703125 38.73046875 -40.375 37.25 C-35.33320926 33.0586318 -31.0101323 28.51088931 -26.89453125 23.41796875 C-26.45496094 22.97066406 -26.01539063 22.52335937 -25.5625 22.0625 C-24.9025 22.0625 -24.2425 22.0625 -23.5625 22.0625 C-23.5625 21.4025 -23.5625 20.7425 -23.5625 20.0625 C-22.5725 20.0625 -21.5825 20.0625 -20.5625 20.0625 C-20.294375 19.423125 -20.02625 18.78375 -19.75 18.125 C-18.5625 16.0625 -18.5625 16.0625 -15.5625 15.0625 C-15.2325 14.0725 -14.9025 13.0825 -14.5625 12.0625 C-13.9025 12.0625 -13.2425 12.0625 -12.5625 12.0625 C-11.9025 10.7425 -11.2425 9.4225 -10.5625 8.0625 C-9.9025 8.0625 -9.2425 8.0625 -8.5625 8.0625 C-8.2325 7.0725 -7.9025 6.0825 -7.5625 5.0625 C-6.9025 5.0625 -6.2425 5.0625 -5.5625 5.0625 C-5.253125 4.423125 -4.94375 3.78375 -4.625 3.125 C-3.05351796 0.07447605 -3.05351796 0.07447605 0 0 Z " fill="#E7E7E7" transform="translate(255.5625,104.9375)"/>
<path d="M0 0 C0.99 0 1.98 0 3 0 C3.49927348 5.31484672 1.95760085 8.43154044 -0.875 12.75 C-1.70607767 14.07106375 -2.53407519 15.394069 -3.359375 16.71875 C-4.0100293 17.75902344 -4.0100293 17.75902344 -4.67382812 18.8203125 C-6.94949958 22.56059136 -9.02822463 26.40752597 -11.125 30.25 C-14.83582785 37.01198491 -18.7257324 43.57444539 -23 50 C-24.32 49.01 -25.64 48.02 -27 47 C-26.4468998 43.12829857 -24.70189633 41.70189633 -22 39 C-20.94535351 37.0282696 -19.95394836 35.02237052 -19 33 C-15.68115027 26.70608578 -11.99488907 20.63117761 -8.31811523 14.54296875 C-5.43342351 9.7552198 -2.6535399 4.92038304 0 0 Z " fill="#ACACAC" transform="translate(226,102)"/>
<path d="M0 0 C2.95265215 -0.35555497 5.04251831 0.34835149 8 1 C8 1.66 8 2.32 8 3 C8.66 3 9.32 3 10 3 C10.23822167 5.85866009 10.42775712 8.19819084 10 11 C7.54027583 13.81111333 6.0921588 14.86998109 2.375 15.3125 C0 15 0 15 -3 14 C-3.12375 13.195625 -3.2475 12.39125 -3.375 11.5625 C-3.58125 10.716875 -3.7875 9.87125 -4 9 C-6.5993317 7.70033415 -8.54864203 7.83955838 -11.45947266 7.79467773 C-12.60050446 7.77473251 -13.74153625 7.75478729 -14.91714478 7.73423767 C-16.77186905 7.70916893 -16.77186905 7.70916893 -18.6640625 7.68359375 C-19.92640717 7.66281265 -21.18875183 7.64203156 -22.48934937 7.62062073 C-25.84632045 7.56622074 -29.20330189 7.51599764 -32.56036377 7.46777344 C-35.98561065 7.41754958 -39.41076829 7.36186814 -42.8359375 7.30664062 C-49.55722061 7.19938141 -56.27857044 7.0976256 -63 7 C-63 6.67 -63 6.34 -63 6 C-62.28447464 5.99857498 -61.56894928 5.99714996 -60.83174133 5.99568176 C-54.07827909 5.97782919 -47.32542935 5.93614987 -40.57227802 5.86790943 C-37.10058825 5.83366304 -33.62933737 5.80853332 -30.1574707 5.80444336 C-26.16304533 5.79933406 -22.16993294 5.75420534 -18.17578125 5.70703125 C-16.93290848 5.7109639 -15.69003571 5.71489655 -14.40950012 5.71894836 C-7.47541115 5.87390264 -7.47541115 5.87390264 -1.81640625 2.47265625 C-1.21699219 1.65667969 -0.61757813 0.84070313 0 0 Z " fill="#D0D0D0" transform="translate(323,163)"/>
<path d="M0 0 C0.99 0 1.98 0 3 0 C3.48958333 1.8359375 3.97916667 3.671875 4.46875 5.5078125 C4.78908203 6.70865479 5.10941406 7.90949707 5.43945312 9.14672852 C6.15275789 11.82141355 6.86486607 14.49641356 7.57617188 17.17163086 C9.28269195 23.5859636 10.99495366 29.99842978 12.74157715 36.40197754 C13.48585523 39.131952 14.22562777 41.86313853 14.96508789 44.59442139 C15.49252813 46.53500909 16.02649169 48.47381998 16.56054688 50.41259766 C16.88087891 51.59772949 17.20121094 52.78286133 17.53125 54.00390625 C17.81548828 55.04361572 18.09972656 56.0833252 18.39257812 57.15454102 C18.97219549 59.86975017 19.11943726 62.23483674 19 65 C17.10205078 64.34521484 17.10205078 64.34521484 15 63 C14.02685547 60.54150391 14.02685547 60.54150391 13.3671875 57.4765625 C13.11839844 56.373125 12.86960938 55.2696875 12.61328125 54.1328125 C12.36964844 52.97523438 12.12601563 51.81765625 11.875 50.625 C11.3766608 48.34541762 10.87422005 46.06672704 10.3671875 43.7890625 C10.15175293 42.77537598 9.93631836 41.76168945 9.71435547 40.71728516 C9.05952303 38.22641536 8.14490298 36.28556333 7 34 C6.875 30.75 6.875 30.75 7 28 C6.34 28 5.68 28 5 28 C4.87625 26.948125 4.7525 25.89625 4.625 24.8125 C4.17463613 21.18631934 4.17463613 21.18631934 3.0625 18.6875 C0.71991365 12.76213453 -0.33481963 6.36157299 0 0 Z " fill="#848484" transform="translate(165,80)"/>
<path d="M0 0 C-3.22354646 3.08339227 -6.37161533 3.6403605 -10.59375 4.4765625 C-12.86974256 4.97166478 -14.98879975 5.6120182 -17.1875 6.375 C-27.2744546 9.85447214 -37.6309107 12.50944585 -48 15 C-48.68594238 15.16532227 -49.37188477 15.33064453 -50.07861328 15.50097656 C-52.34332024 16.04553407 -54.60895637 16.58603331 -56.875 17.125 C-57.58889893 17.29580078 -58.30279785 17.46660156 -59.03833008 17.64257812 C-61.02200425 18.11036647 -63.01092008 18.55575881 -65 19 C-66.64355469 19.36738281 -66.64355469 19.36738281 -68.3203125 19.7421875 C-71 20 -71 20 -74 18 C-70.31504109 15.78712519 -66.42227742 15.24768763 -62.25 14.5625 C-56.51450065 13.561084 -51.3930053 12.17612495 -46 10 C-43.7312584 9.42684423 -41.45490332 8.94111822 -39.1640625 8.46484375 C-33.30428254 7.20615455 -27.61455658 5.29091306 -21.9765625 3.27734375 C-7.35779229 -1.82640234 -7.35779229 -1.82640234 0 0 Z " fill="#CAC9CA" transform="translate(281,146)"/>
<path d="M0 0 C5.35907953 -0.34079997 9.65459315 0.89329117 14.6875 2.5 C20.2325248 4.34666993 20.2325248 4.34666993 26 5 C26 5.66 26 6.32 26 7 C27.68717539 7.31424786 29.37475949 7.62630155 31.0625 7.9375 C32.073125 8.12441406 33.08375 8.31132812 34.125 8.50390625 C36.25885489 8.87211219 38.4090082 9.14831665 40.5625 9.375 C43.67931849 9.94169427 45.98617554 10.76636989 48.875 12 C52.95158889 13.7232853 56.42980261 14.40597969 60.81640625 14.71875 C64.46796784 15.18907636 67.61586913 16.584818 71 18 C70.505 19.485 70.505 19.485 70 21 C69.44570312 20.84402344 68.89140625 20.68804687 68.3203125 20.52734375 C67.23363281 20.23537109 67.23363281 20.23537109 66.125 19.9375 C65.40570313 19.74027344 64.68640625 19.54304688 63.9453125 19.33984375 C61.92726407 18.78867393 61.92726407 18.78867393 60 20 C60 19.34 60 18.68 60 18 C59.3709375 17.95101562 58.741875 17.90203125 58.09375 17.8515625 C52.52417695 17.36506365 47.39615362 16.44539829 42 15 C41.34 15 40.68 15 40 15 C40 14.34 40 13.68 40 13 C34.06 12.01 28.12 11.02 22 10 C22 9.34 22 8.68 22 8 C18.7 7.67 15.4 7.34 12 7 C12 6.34 12 5.68 12 5 C10.948125 4.87625 9.89625 4.7525 8.8125 4.625 C5.54041229 4.08859218 2.99463924 3.36119965 0 2 C0 1.34 0 0.68 0 0 Z " fill="#C7C6C7" transform="translate(98,145)"/>
<path d="M0 0 C0 0.99 0 1.98 0 3 C-35.64 3 -71.28 3 -108 3 C-107.67 2.34 -107.34 1.68 -107 1 C-94.08251828 0.8692023 -81.1650328 0.73878411 -68.24754238 0.60884857 C-62.24925487 0.54850061 -56.25096873 0.4880226 -50.25268555 0.42724609 C-44.4625739 0.36858366 -38.67245888 0.31026451 -32.88234138 0.25218201 C-30.6747939 0.22997733 -28.46724765 0.20764957 -26.25970268 0.18519592 C-23.16459339 0.15373573 -20.06947998 0.12271562 -16.97436523 0.09179688 C-16.06445831 0.08244614 -15.15455139 0.0730954 -14.21707153 0.0634613 C-9.47774755 0.01660394 -4.73955539 -0.00945291 0 0 Z " fill="#F6F6F6" transform="translate(168,169)"/>
<path d="M0 0 C1.20916077 0.00308167 1.20916077 0.00308167 2.44274902 0.00622559 C3.36479126 0.00682983 4.2868335 0.00743408 5.23681641 0.00805664 C6.76477844 0.01778503 6.76477844 0.01778503 8.3236084 0.02770996 C9.38768921 0.03129517 10.45177002 0.03488037 11.5480957 0.03857422 C25.25616606 0.10515895 38.96177721 0.36638482 52.6673584 0.62145996 C55.35224641 0.67007622 58.03714593 0.71804053 60.7220459 0.76599121 C67.20385896 0.88223768 73.68562494 1.00086055 80.1673584 1.12145996 C79.8373584 1.78145996 79.5073584 2.44145996 79.1673584 3.12145996 C42.2073584 3.12145996 5.2473584 3.12145996 -32.8326416 3.12145996 C-32.8326416 2.79145996 -32.8326416 2.46145996 -32.8326416 2.12145996 C-31.92908936 2.09640381 -31.02553711 2.07134766 -30.09460449 2.04553223 C-26.7529988 1.95058679 -23.41157908 1.85134375 -20.07019043 1.74914551 C-18.6219992 1.70574366 -17.17375506 1.66407252 -15.72546387 1.62414551 C-13.64774601 1.56656934 -11.57029587 1.50283968 -9.49279785 1.43786621 C-8.24119873 1.4012085 -6.98959961 1.36455078 -5.70007324 1.32678223 C-2.79457534 1.11873423 -2.57564973 0.17070349 0 0 Z " fill="#F6F6F6" transform="translate(237.8326416015625,168.8785400390625)"/>
<path d="M0 0 C1.32 0.33 2.64 0.66 4 1 C4 1.66 4 2.32 4 3 C4.66 3 5.32 3 6 3 C6.41121094 4.02222656 6.82242188 5.04445313 7.24609375 6.09765625 C8.83192115 9.80102416 10.85355965 13.064221 13.0625 16.4375 C16.14417437 21.3342523 18.10576384 25.29924449 19 31 C16.69140625 30.82421875 16.69140625 30.82421875 14 30 C12.33984375 27.70703125 12.33984375 27.70703125 10.9375 24.8125 C8.571355 20.08370075 8.571355 20.08370075 5.75 15.625 C4.0779971 13.11699565 3.03746562 10.81597811 2 8 C1.62875 7.319375 1.2575 6.63875 0.875 5.9375 C0 4 0 4 0 0 Z " fill="#B6B6B6" transform="translate(146,96)"/>
<path d="M0 0 C-0.0703125 1.7265625 -0.0703125 1.7265625 -1 4 C-3.27657467 5.63461628 -5.44415998 7.01289137 -7.875 8.375 C-8.54885742 8.76421631 -9.22271484 9.15343262 -9.91699219 9.55444336 C-11.93760958 10.71589117 -13.96796237 11.85868398 -16 13 C-17.10085938 13.63292969 -18.20171875 14.26585937 -19.3359375 14.91796875 C-26.56918052 19 -26.56918052 19 -30 19 C-26.00059982 10.07826113 -9.73063662 0 0 0 Z " fill="#D4D4D4" transform="translate(280,118)"/>
<path d="M0 0 C5.41845069 2.1448034 10.11662055 4.83772668 15 8 C18.95622373 10.41233154 22.97229176 12.70973453 27 15 C27 16.98 27 18.96 27 21 C25.68 20.67 24.36 20.34 23 20 C23.33 19.67 23.66 19.34 24 19 C23.33355469 18.64808594 22.66710937 18.29617187 21.98046875 17.93359375 C16.91243167 15.21882704 11.88090225 12.43596245 6.9375 9.5 C6.03902344 8.9740625 5.14054688 8.448125 4.21484375 7.90625 C1.45664561 5.53235107 0.86568099 3.48228737 0 0 Z " fill="#D2D2D2" transform="translate(147,144)"/>
<path d="M0 0 C1.875 1.0625 1.875 1.0625 3 3 C3.3125 6.5625 3.3125 6.5625 3 10 C1 12 1 12 -0.875 12.23046875 C-1.57625 12.21628906 -2.2775 12.20210937 -3 12.1875 C-3.70125 12.18105469 -4.4025 12.17460937 -5.125 12.16796875 C-7 12 -7 12 -9 11 C-9.77811718 7.18015204 -10.24386556 4.73159669 -9 1 C-5.72429875 -0.09190042 -3.43202271 -0.28600189 0 0 Z " fill="#D9D9D9" transform="translate(39,164)"/>
<path d="M0 0 C3.4375 0.75 3.4375 0.75 5.4375 2.75 C5.6875 6.25 5.6875 6.25 5.4375 9.75 C3.4375 11.75 3.4375 11.75 -0.5 12.0625 C-3.01594502 11.98015998 -4.36661565 11.85091012 -6.625 10.6875 C-8.16237081 7.51026699 -7.4091463 5.07611047 -6.5625 1.75 C-3.5625 -0.25 -3.5625 -0.25 0 0 Z " fill="#D6D6D6" transform="translate(344.5625,164.25)"/>
<path d="M0 0 C1.2065625 0.0309375 1.2065625 0.0309375 2.4375 0.0625 C1.09115543 4.4687186 -0.75624374 6.49327702 -4.5625 9.0625 C-5.2225 9.0625 -5.8825 9.0625 -6.5625 9.0625 C-6.5625 9.7225 -6.5625 10.3825 -6.5625 11.0625 C-8.18352968 12.77358689 -9.85753463 14.43503306 -11.5625 16.0625 C-12.284375 16.825625 -13.00625 17.58875 -13.75 18.375 C-15.5625 20.0625 -15.5625 20.0625 -17.5625 20.0625 C-17.5625 20.7225 -17.5625 21.3825 -17.5625 22.0625 C-18.2225 22.0625 -18.8825 22.0625 -19.5625 22.0625 C-19.8925 22.7225 -20.2225 23.3825 -20.5625 24.0625 C-20.5625 23.0725 -20.5625 22.0825 -20.5625 21.0625 C-21.2225 21.0625 -21.8825 21.0625 -22.5625 21.0625 C-22.5625 21.7225 -22.5625 22.3825 -22.5625 23.0625 C-23.5525 22.7325 -24.5425 22.4025 -25.5625 22.0625 C-24.9025 22.0625 -24.2425 22.0625 -23.5625 22.0625 C-23.5625 21.4025 -23.5625 20.7425 -23.5625 20.0625 C-22.5725 20.0625 -21.5825 20.0625 -20.5625 20.0625 C-20.294375 19.423125 -20.02625 18.78375 -19.75 18.125 C-18.5625 16.0625 -18.5625 16.0625 -15.5625 15.0625 C-15.2325 14.0725 -14.9025 13.0825 -14.5625 12.0625 C-13.9025 12.0625 -13.2425 12.0625 -12.5625 12.0625 C-11.9025 10.7425 -11.2425 9.4225 -10.5625 8.0625 C-9.9025 8.0625 -9.2425 8.0625 -8.5625 8.0625 C-8.2325 7.0725 -7.9025 6.0825 -7.5625 5.0625 C-6.9025 5.0625 -6.2425 5.0625 -5.5625 5.0625 C-5.253125 4.423125 -4.94375 3.78375 -4.625 3.125 C-3.05351796 0.07447605 -3.05351796 0.07447605 0 0 Z " fill="#C5C5C5" transform="translate(255.5625,104.9375)"/>
<path d="M0 0 C4.75647668 1.49740933 4.75647668 1.49740933 7 3 C8.4375 6.6875 8.4375 6.6875 9 10 C8.360625 10.309375 7.72125 10.61875 7.0625 10.9375 C5.06389179 11.8345163 5.06389179 11.8345163 4 13 C1.30917128 12.82364548 -1.32851446 12.38164079 -4 12 C-4.8125 8.8125 -4.8125 8.8125 -5 5 C-2.5625 2.0625 -2.5625 2.0625 0 0 Z " fill="#E7E7E7" transform="translate(64,92)"/>
<path d="M0 0 C1.99890831 2.57330725 3.70726736 5.13182102 5.25 8 C8.38138634 13.7360869 11.69137186 19.36484371 15 25 C14.01 25.33 13.02 25.66 12 26 C11.67 26.99 11.34 27.98 11 29 C11 28.01 11 27.02 11 26 C10.34 26 9.68 26 9 26 C9 25.01 9 24.02 9 23 C8.34 23 7.68 23 7 23 C6.74605469 22.48050781 6.49210938 21.96101563 6.23046875 21.42578125 C4.68347688 18.29123967 3.14217174 15.23168728 1.3125 12.25 C0.07301587 10.12517006 -0.55487423 8.40367915 -1 6 C-0.34 6 0.32 6 1 6 C0.67 4.02 0.34 2.04 0 0 Z " fill="#BEBEBE" transform="translate(134,70)"/>
<path d="M0 0 C0.99 0 1.98 0 3 0 C3.64357184 5.83746854 1.61259033 9.03832784 -1.4375 13.75 C-2.26973044 15.07800019 -3.10177054 16.40611969 -3.93359375 17.734375 C-4.61550781 18.81203125 -5.29742187 19.8896875 -6 21 C-6.33 21.66 -6.66 22.32 -7 23 C-7.99 22.67 -8.98 22.34 -10 22 C-9.6774802 16.73217667 -8.57417668 13.9756911 -5.34375 9.84375 C-3.11116625 6.78043741 -1.61961243 3.4191818 0 0 Z " fill="#CECECE" transform="translate(226,102)"/>
<path d="M0 0 C0.99 0 1.98 0 3 0 C8.74031891 18.82004556 8.74031891 18.82004556 8 28 C7.01 28 6.02 28 5 28 C4.87625 26.948125 4.7525 25.89625 4.625 24.8125 C4.17463613 21.18631934 4.17463613 21.18631934 3.0625 18.6875 C0.71991365 12.76213453 -0.33481963 6.36157299 0 0 Z " fill="#A7A7A7" transform="translate(165,80)"/>
<path d="M0 0 C2.64 0 5.28 0 8 0 C9.125 2.3125 9.125 2.3125 10 5 C8 8 8 8 5 9 C4.505 9.99 4.01 10.98 3.5 12 C3.005 12.99 2.51 13.98 2 15 C1.01 15.33 0.02 15.66 -1 16 C-1.38133299 14.0085944 -1.71325582 12.00720923 -2 10 C-1.67 9.67 -1.34 9.34 -1 9 C-0.76807135 7.48530552 -0.58784762 5.96245438 -0.4375 4.4375 C-0.35371094 3.61121094 -0.26992188 2.78492188 -0.18359375 1.93359375 C-0.12300781 1.29550781 -0.06242187 0.65742187 0 0 Z " fill="#C1C1C1" transform="translate(260,36)"/>
<path d="M0 0 C2.76328958 1.38164479 3.26224217 3.08303364 4.6875 5.8125 C7.52935869 11.18670802 10.60250358 16.38285616 13.77734375 21.56640625 C14.38255859 22.77103516 14.38255859 22.77103516 15 24 C14.67 24.66 14.34 25.32 14 26 C12 24 10 22 8 20 C7.67 20.99 7.34 21.98 7 23 C7 21.68 7 20.36 7 19 C6.34 19 5.68 19 5 19 C4.67 17.35 4.34 15.7 4 14 C3.34 14 2.68 14 2 14 C1.01 11.36 0.02 8.72 -1 6 C-0.34 5.67 0.32 5.34 1 5 C0.67 3.35 0.34 1.7 0 0 Z " fill="#9E9E9E" transform="translate(163,121)"/>
<path d="M0 0 C4.39448788 1.22922738 8.30685336 3.7420986 12.25 6 C12.88679688 6.35578125 13.52359375 6.7115625 14.1796875 7.078125 C18.87881324 9.75762649 18.87881324 9.75762649 20 12 C19.34 12 18.68 12 18 12 C18.33 12.99 18.66 13.98 19 15 C15.8377205 13.45218638 12.76449466 11.77290863 9.6875 10.0625 C5.52979628 7.78300828 1.4001111 5.76004444 -3 4 C-3 3.34 -3 2.68 -3 2 C-2.01 1.34 -1.02 0.68 0 0 Z " fill="#A9A9A9" transform="translate(72,101)"/>
<path d="M0 0 C4.26340736 1.52264549 5.92612655 4.06679174 8 8 C9.72761884 13.95313244 9.066184 18.08174464 6.10546875 23.46875 C5 25 5 25 3 26 C3.28875 25.29875 3.5775 24.5975 3.875 23.875 C5.02133588 20.94547497 6.02625654 17.99078347 7 15 C6.34 15 5.68 15 5 15 C4.67386719 14.30132812 4.34773437 13.60265625 4.01171875 12.8828125 C3.57472656 11.97273438 3.13773438 11.06265625 2.6875 10.125 C2.25824219 9.22007813 1.82898438 8.31515625 1.38671875 7.3828125 C0.0800612 4.73550524 0.0800612 4.73550524 -3 3 C-5.0492094 2.54860541 -5.0492094 2.54860541 -7.1875 2.375 C-8.445625 2.25125 -9.70375 2.1275 -11 2 C-11 1.67 -11 1.34 -11 1 C-10.28972656 1.01160156 -9.57945312 1.02320313 -8.84765625 1.03515625 C-7.92855469 1.04417969 -7.00945312 1.05320312 -6.0625 1.0625 C-4.68771484 1.07990234 -4.68771484 1.07990234 -3.28515625 1.09765625 C-1.03406673 1.25949049 -1.03406673 1.25949049 0 0 Z " fill="#818181" transform="translate(197,6)"/>
<path d="M0 0 C0 0.99 0 1.98 0 3 C0.66 3.66 1.32 4.32 2 5 C-0.41632339 6.29231226 -2.83304396 7.58387191 -5.25 8.875 C-5.93191406 9.23980469 -6.61382812 9.60460937 -7.31640625 9.98046875 C-10.5252626 11.69393573 -13.73250878 13.39993987 -17 15 C-17 14.01 -17 13.02 -17 12 C-18.65 12.33 -20.3 12.66 -22 13 C-20.31397777 9.62795554 -16.53489739 8.63844109 -13.25 7.0625 C-8.7190841 4.86630965 -4.27102078 2.68199927 0 0 Z " fill="#CACACA" transform="translate(297,106)"/>
<path d="M0 0 C-0.33 0.99 -0.66 1.98 -1 3 C-1.65226562 2.91878906 -2.30453125 2.83757813 -2.9765625 2.75390625 C-8.21354527 2.32565368 -8.21354527 2.32565368 -12.9296875 4.27734375 C-16.72500883 8.4408679 -18.03821169 12.51780662 -19 18 C-19.33 18 -19.66 18 -20 18 C-20.144375 17.0925 -20.28875 16.185 -20.4375 15.25 C-20.91364496 12.15495103 -20.91364496 12.15495103 -21.625 9.8125 C-22 8 -22 8 -21 5 C-15.56147772 -1.87813112 -7.99474396 -0.45771435 0 0 Z " fill="#BBBBBB" transform="translate(197,5)"/>
<path d="M0 0 C0.33 0 0.66 0 1 0 C1 2.64 1 5.28 1 8 C1.66 8 2.32 8 3 8 C4.3726682 9.97321053 5.70427617 11.97543152 7 14 C8.95216435 15.95216435 10.53199953 16.84826645 13 18 C12.01 18 11.02 18 10 18 C10 18.66 10 19.32 10 20 C5.54529573 19.49089094 3.06105049 18.30271237 0 15 C-3.55395683 6.6618705 -3.55395683 6.6618705 -2 2 C-1.34 2 -0.68 2 0 2 C0 1.34 0 0.68 0 0 Z " fill="#CFCFCF" transform="translate(176,15)"/>
<path d="M0 0 C0.53625 0.37125 1.0725 0.7425 1.625 1.125 C1.625 3.435 1.625 5.745 1.625 8.125 C-3.68409091 9.45227273 -3.68409091 9.45227273 -6.75 8 C-8.375 6.125 -8.375 6.125 -8.625 3.4375 C-8.5425 2.674375 -8.46 1.91125 -8.375 1.125 C-2.95961538 -1.09038462 -2.95961538 -1.09038462 0 0 Z " fill="#DFDFDF" transform="translate(23.375,165.875)"/>
<path d="M0 0 C-2 2 -4 4 -6 6 C-5.67 6.99 -5.34 7.98 -5 9 C-8.3 9.33 -11.6 9.66 -15 10 C-15 8.68 -15 7.36 -15 6 C-15.66 5.67 -16.32 5.34 -17 5 C-11.18524285 1.72408048 -6.75479274 -0.7342166 0 0 Z " fill="#CFCECF" transform="translate(215,158)"/>
<path d="M0 0 C0.99 0.99 1.98 1.98 3 3 C1.51481201 7.04301175 -0.42877998 10.61146256 -2.625 14.3125 C-3.25664062 15.38113281 -3.88828125 16.44976562 -4.5390625 17.55078125 C-5.02117187 18.35902344 -5.50328125 19.16726562 -6 20 C-6.33 19.01 -6.66 18.02 -7 17 C-6.67 16.34 -6.34 15.68 -6 15 C-6.66 15 -7.32 15 -8 15 C-8 15.99 -8 16.98 -8 18 C-8.66 18 -9.32 18 -10 18 C-8.5216233 13.98832453 -6.60821705 10.42979591 -4.4375 6.75 C-3.81746094 5.69296875 -3.19742188 4.6359375 -2.55859375 3.546875 C-1 1 -1 1 0 0 Z " fill="#9E9E9E" transform="translate(258,48)"/>
<path d="M0 0 C0.125 2.875 0.125 2.875 0 6 C-0.66 6.66 -1.32 7.32 -2 8 C-5.625 7.625 -5.625 7.625 -9 7 C-10.31236443 2.5856833 -10.31236443 2.5856833 -9 0.125 C-5.89740743 -1.62020832 -3.3726293 -0.69997967 0 0 Z " fill="#C8C8C8" transform="translate(57,88)"/>
<path d="M0 0 C3 0.25 3 0.25 5 2.25 C4.43181818 7.81818182 4.43181818 7.81818182 3 9.25 C0.66055264 8.96269945 -1.6739143 8.63063221 -4 8.25 C-4.625 5.375 -4.625 5.375 -5 2.25 C-3 0.25 -3 0.25 0 0 Z " fill="#C8C8C8" transform="translate(359,165.75)"/>
<path d="M0 0 C1 1 1 1 1.1875 3.4375 C1 6 1 6 -1 8 C-4.125 8.125 -4.125 8.125 -7 8 C-9.125 3.375 -9.125 3.375 -8 0 C-5.11795733 -1.44102133 -3.08226581 -0.65580124 0 0 Z " fill="#C6C6C6" transform="translate(332,87)"/>
<path d="M0 0 C2.31 0 4.62 0 7 0 C7 0.99 7 1.98 7 3 C6.67 3.33 6.34 3.66 6 4 C13.59 4.33 21.18 4.66 29 5 C28.67 3.68 28.34 2.36 28 1 C28.99 1 29.98 1 31 1 C30.67 2.32 30.34 3.64 30 5 C31.98 5 33.96 5 36 5 C36 5.33 36 5.66 36 6 C23.79 6 11.58 6 -1 6 C-1 5.01 -1 4.02 -1 3 C0.98 3 2.96 3 5 3 C5 2.34 5 1.68 5 1 C3.35 1 1.7 1 0 1 C0 0.67 0 0.34 0 0 Z " fill="#EEECED" transform="translate(169,166)"/>
<path d="M0 0 C4.50727647 0.60266785 7.8587963 2.36599794 11.8125 4.5625 C12.7087207 5.0565332 12.7087207 5.0565332 13.62304688 5.56054688 C15.08533998 6.36773267 16.5431399 7.18304917 18 8 C16 10 16 10 12.375 10.125 C11.26125 10.08375 10.1475 10.0425 9 10 C9 9.34 9 8.68 9 8 C8.030625 7.7525 7.06125 7.505 6.0625 7.25 C5.051875 6.8375 4.04125 6.425 3 6 C2.125 3.875 2.125 3.875 2 2 C1.34 2 0.68 2 0 2 C0 1.34 0 0.68 0 0 Z " fill="#D4D4D4" transform="translate(112,125)"/>
<path d="M0 0 C0.556875 0.268125 1.11375 0.53625 1.6875 0.8125 C0.17980769 4.58173077 0.17980769 4.58173077 -2.3125 5.75 C-5.06236668 7.21086667 -5.40083304 8.92555462 -6.3125 11.8125 C-7.3025 11.8125 -8.2925 11.8125 -9.3125 11.8125 C-9.3125 12.4725 -9.3125 13.1325 -9.3125 13.8125 C-10.9625 13.4825 -12.6125 13.1525 -14.3125 12.8125 C-12.9375 10.8125 -12.9375 10.8125 -11.3125 8.8125 C-10.6525 8.8125 -9.9925 8.8125 -9.3125 8.8125 C-9.3125 8.1525 -9.3125 7.4925 -9.3125 6.8125 C-8.6525 6.8125 -7.9925 6.8125 -7.3125 6.8125 C-7.3125 6.1525 -7.3125 5.4925 -7.3125 4.8125 C-3.07471307 -0.24930106 -3.07471307 -0.24930106 0 0 Z " fill="#A6A6A6" transform="translate(219.3125,140.1875)"/>
<path d="M0 0 C0.33 0 0.66 0 1 0 C2.36139053 5.1810634 1.59764648 7.7186085 -0.9375 12.375 C-1.50339844 13.43460938 -2.06929687 14.49421875 -2.65234375 15.5859375 C-3.09707031 16.38257812 -3.54179687 17.17921875 -4 18 C-6.97 17.67 -9.94 17.34 -13 17 C-11.00792331 15.43479689 -9.33176352 14.12064128 -6.9375 13.25 C-3.83992256 11.25156294 -3.26080275 8.40416742 -2 5 C-1.34 5 -0.68 5 0 5 C0 3.35 0 1.7 0 0 Z " fill="#D0D0D0" transform="translate(203,16)"/>
<path d="M0 0 C-0.57823096 4.06225548 -1.89117737 6.84762346 -4.0625 10.3125 C-4.61035156 11.19550781 -5.15820312 12.07851562 -5.72265625 12.98828125 C-6.14417969 13.65214844 -6.56570312 14.31601563 -7 15 C-8.32 14.01 -9.64 13.02 -11 12 C-10.45117921 8.15825448 -8.81576178 6.57441077 -6 4 C-5.29875 3.2575 -4.5975 2.515 -3.875 1.75 C-2 0 -2 0 0 0 Z " fill="#D3D3D3" transform="translate(210,137)"/>
<path d="M0 0 C0.66 0.33 1.32 0.66 2 1 C2.33 1.99 2.66 2.98 3 4 C-2.94 7.465 -2.94 7.465 -9 11 C-9.33 10.01 -9.66 9.02 -10 8 C-10.99 7.67 -11.98 7.34 -13 7 C-11.68 6.67 -10.36 6.34 -9 6 C-9 5.34 -9 4.68 -9 4 C-8.43410156 3.79503906 -7.86820313 3.59007812 -7.28515625 3.37890625 C-6.55167969 3.10949219 -5.81820312 2.84007812 -5.0625 2.5625 C-4.33160156 2.29566406 -3.60070312 2.02882812 -2.84765625 1.75390625 C-1.01694322 1.14613052 -1.01694322 1.14613052 0 0 Z " fill="#C3C2C3" transform="translate(233,143)"/>
<path d="M0 0 C1.32 0.33 2.64 0.66 4 1 C4 1.66 4 2.32 4 3 C4.66 3 5.32 3 6 3 C7.80230168 6.82989106 8.19622241 9.78121808 8 14 C6.125 13.8125 6.125 13.8125 4 13 C2.875 10.6875 2.875 10.6875 2 8 C1.62875 7.319375 1.2575 6.63875 0.875 5.9375 C0 4 0 4 0 0 Z " fill="#CDCDCD" transform="translate(146,96)"/>
<path d="M0 0 C0.79953138 3.28696233 1.09658936 4.71023192 0 8 C-2.31 8 -4.62 8 -7 8 C-7.6875 5.6875 -7.6875 5.6875 -8 3 C-5.90994325 -0.36731366 -3.75103888 -0.30413829 0 0 Z " fill="#E3E3E3" transform="translate(117,36)"/>
<path d="M0 0 C3.17422653 1.66269009 5.20140817 3.75490073 7.625 6.375 C8.285 7.035 8.945 7.695 9.625 8.375 C9.25 11 9.25 11 8.625 13.375 C5.94154249 12.03327124 3.85828142 10.37319916 1.625 8.375 C1.625 7.385 1.625 6.395 1.625 5.375 C0.965 5.375 0.305 5.375 -0.375 5.375 C-1.035 4.385 -1.695 3.395 -2.375 2.375 C-3.365 1.715 -4.355 1.055 -5.375 0.375 C-2.375 -0.625 -2.375 -0.625 0 0 Z " fill="#A9A9A8" transform="translate(165.375,144.625)"/>
<path d="M0 0 C0.33 0 0.66 0 1 0 C1.67404284 2.56076097 2.339414 5.12326583 3 7.6875 C3.19078125 8.40873047 3.3815625 9.12996094 3.578125 9.87304688 C4.54865428 13.66850961 5.24955239 17.04615439 5 21 C3.109375 20.37109375 3.109375 20.37109375 1 19 C-0.046875 16.28515625 -0.046875 16.28515625 -0.75 13.0625 C-0.99234375 12.00160156 -1.2346875 10.94070312 -1.484375 9.84765625 C-2 7 -2 7 -2 4 C-1.34 4 -0.68 4 0 4 C0 2.68 0 1.36 0 0 Z " fill="#717171" transform="translate(179,124)"/>
<path d="M0 0 C0.99 0 1.98 0 3 0 C3.32120156 4.60388896 2.99179956 7.38920743 0 11 C-2.6875 11.8125 -2.6875 11.8125 -5 12 C-4.35550393 8.98782888 -3.34977818 6.48344164 -1.9375 3.75 C-1.57527344 3.04359375 -1.21304688 2.3371875 -0.83984375 1.609375 C-0.56269531 1.07828125 -0.28554687 0.5471875 0 0 Z " fill="#CFCFCF" transform="translate(226,102)"/>
<path d="M0 0 C1.32 0 2.64 0 4 0 C2.66958425 9.17286652 2.66958425 9.17286652 -0.125 12.625 C-0.74375 13.07875 -1.3625 13.5325 -2 14 C-3.81975482 8.87160006 -1.8599099 4.82315618 0 0 Z " fill="#C6C6C6" transform="translate(211,80)"/>
<path d="M0 0 C1.4589426 0.47730838 2.91713496 0.95691042 4.375 1.4375 C5.18710938 1.70433594 5.99921875 1.97117188 6.8359375 2.24609375 C9 3 9 3 11 4 C11 5.98 11 7.96 11 10 C9.68 9.67 8.36 9.34 7 9 C7.33 8.67 7.66 8.34 8 8 C5.36 6.68 2.72 5.36 0 4 C0 2.68 0 1.36 0 0 Z " fill="#E7E7E6" transform="translate(163,155)"/>
<path d="M0 0 C3.45766484 1.72883242 4.51454357 5.56204407 6 9 C6.875 11.875 6.875 11.875 7 14 C6.34 14.66 5.68 15.32 5 16 C5 15.34 5 14.68 5 14 C4.01 14 3.02 14 2 14 C1.01 11.36 0.02 8.72 -1 6 C-0.34 5.67 0.32 5.34 1 5 C0.67 3.35 0.34 1.7 0 0 Z " fill="#ACACAC" transform="translate(163,121)"/>
<path d="M0 0 C0 0.99 0 1.98 0 3 C0.66 3.66 1.32 4.32 2 5 C0.54735962 5.8638129 -0.9123163 6.71580454 -2.375 7.5625 C-3.59316406 8.27599609 -3.59316406 8.27599609 -4.8359375 9.00390625 C-5.55007813 9.33261719 -6.26421875 9.66132812 -7 10 C-7.66 9.67 -8.32 9.34 -9 9 C-8.31267043 6.25068173 -7.64439778 4.46581179 -5.30859375 2.77734375 C-3.56883675 1.79675344 -1.7862389 0.89311945 0 0 Z " fill="#BBBBBB" transform="translate(297,106)"/>
<path d="M0 0 C0.99 0 1.98 0 3 0 C2.34 4.29 1.68 8.58 1 13 C0.01 12.67 -0.98 12.34 -2 12 C-2.17835515 7.45194365 -1.99785435 4.1205746 0 0 Z " fill="#B9B9B9" transform="translate(195,142)"/>
<path d="M0 0 C0 0.33 0 0.66 0 1 C-2.4608575 1.50092554 -4.92255817 1.99600154 -7.38671875 2.48046875 C-9.40800502 2.88230892 -11.42402395 3.31069613 -13.4375 3.75 C-16 4 -16 4 -19 2 C-12.76443294 -1.59744254 -6.84862228 -0.98924544 0 0 Z " fill="#BABABA" transform="translate(226,162)"/>
<path d="M0 0 C-0.33 0.99 -0.66 1.98 -1 3 C-1.55429688 2.84402344 -2.10859375 2.68804687 -2.6796875 2.52734375 C-3.40414062 2.33269531 -4.12859375 2.13804687 -4.875 1.9375 C-5.59429687 1.74027344 -6.31359375 1.54304687 -7.0546875 1.33984375 C-9.07273593 0.78867393 -9.07273593 0.78867393 -11 2 C-11 1.34 -11 0.68 -11 0 C-12.65 0 -14.3 0 -16 0 C-16 -0.33 -16 -0.66 -16 -1 C-9.76839184 -3.51916075 -6.10531243 -2.57502973 0 0 Z " fill="#909090" transform="translate(169,163)"/>
<path d="M0 0 C0.66 0 1.32 0 2 0 C2 4 2 4 0.6875 5.484375 C-0.875 6.65625 -2.4375 7.828125 -4 9 C-5.32 8.34 -6.64 7.68 -8 7 C-5.6875 4.5 -5.6875 4.5 -3 2 C-2.01 2 -1.02 2 0 2 C0 1.34 0 0.68 0 0 Z " fill="#E2E2E2" transform="translate(233,126)"/>
<path d="M0 0 C2.93200474 2.85276137 5.64315404 5.65079784 8 9 C6.35 9.33 4.7 9.66 3 10 C1.35 7.69 -0.3 5.38 -2 3 C-1.34 3 -0.68 3 0 3 C0 2.01 0 1.02 0 0 Z " fill="#B8B8B8" transform="translate(135,115)"/>
<path d="M0 0 C3.9492568 0.55105909 7.34920174 1.38935371 11 3 C10.67 4.32 10.34 5.64 10 7 C9.34 7 8.68 7 8 7 C8 6.34 8 5.68 8 5 C3.545 4.01 3.545 4.01 -1 3 C-0.67 2.01 -0.34 1.02 0 0 Z " fill="#ADADAD" transform="translate(112,148)"/>
<path d="M0 0 C0.94875 0.350625 1.8975 0.70125 2.875 1.0625 C3.205 2.7125 3.535 4.3625 3.875 6.0625 C-2.875 4.1875 -2.875 4.1875 -5.125 3.0625 C-5.125 2.0725 -5.125 1.0825 -5.125 0.0625 C-3.125 -0.9375 -3.125 -0.9375 0 0 Z " fill="#DBDBDB" transform="translate(144.125,141.9375)"/>
<path d="M0 0 C0.96484618 3.05192479 1.00348185 5.0371838 0.1875 8.125 C-0.06966797 9.14980469 -0.06966797 9.14980469 -0.33203125 10.1953125 C-1 12 -1 12 -3 14 C-2.67 12.35 -2.34 10.7 -2 9 C-2.66 9 -3.32 9 -4 9 C-4 9.99 -4 10.98 -4 12 C-4.66 12 -5.32 12 -6 12 C-4.43358249 7.69235185 -2.31663844 3.93828536 0 0 Z " fill="#969696" transform="translate(254,54)"/>
<path d="M0 0 C0.33 0.66 0.66 1.32 1 2 C1.99 2.33 2.98 2.66 4 3 C2.02 3.99 2.02 3.99 0 5 C0 5.66 0 6.32 0 7 C-0.66 7 -1.32 7 -2 7 C-2.33 7.66 -2.66 8.32 -3 9 C-3 8.01 -3 7.02 -3 6 C-3.66 6 -4.32 6 -5 6 C-5 6.66 -5 7.32 -5 8 C-5.99 7.67 -6.98 7.34 -8 7 C-7.34 7 -6.68 7 -6 7 C-6 6.34 -6 5.68 -6 5 C-5.01 5 -4.02 5 -3 5 C-2.690625 4.360625 -2.38125 3.72125 -2.0625 3.0625 C-1 1 -1 1 0 0 Z " fill="#B2B2B2" transform="translate(238,120)"/>
<path d="M0 0 C2.475 0.99 2.475 0.99 5 2 C5.33 4.64 5.66 7.28 6 10 C3 9 3 9 1.3125 6.6875 C0 4 0 4 0 0 Z " fill="#B8B8B8" transform="translate(129,66)"/>
<path d="M0 0 C0.66 0 1.32 0 2 0 C1.34 2.31 0.68 4.62 0 7 C-0.66 7 -1.32 7 -2 7 C-2.66 8.65 -3.32 10.3 -4 12 C-4.33 12 -4.66 12 -5 12 C-5.25 6.375 -5.25 6.375 -3 3 C-2.01 3 -1.02 3 0 3 C0 2.01 0 1.02 0 0 Z " fill="#CBCBCB" transform="translate(250,63)"/>
<path d="M0 0 C3.35661695 1.67830848 4.32506861 4.70789347 6 8 C5.67 8.66 5.34 9.32 5 10 C4.34 9.67 3.68 9.34 3 9 C2.67 9.99 2.34 10.98 2 12 C-0.13586678 8.79619983 -0.23132175 7.98060033 -0.125 4.3125 C-0.10695313 3.50425781 -0.08890625 2.69601563 -0.0703125 1.86328125 C-0.04710938 1.24839844 -0.02390625 0.63351563 0 0 Z " fill="#9B9B9B" transform="translate(126,57)"/>
<path d="M0 0 C3.83206182 0.41427695 6.08025204 1.51280729 9 4 C6.04335481 5.4783226 3.25770263 5.06032783 0 5 C-0.5625 3.0625 -0.5625 3.0625 -1 1 C-0.67 0.67 -0.34 0.34 0 0 Z " fill="#DDDDDD" transform="translate(121,130)"/>
<path d="M0 0 C0.66 2.64 1.32 5.28 2 8 C-0.375 7.6875 -0.375 7.6875 -3 7 C-5 4 -5 4 -5 1 C-3 0 -3 0 0 0 Z " fill="#E8E8E8" transform="translate(163,119)"/>
<path d="M0 0 C3.875 0.875 3.875 0.875 5 2 C5.07179964 3.51928038 5.08392007 5.04167482 5.0625 6.5625 C5.05347656 7.38878906 5.04445313 8.21507812 5.03515625 9.06640625 C5.01775391 10.02353516 5.01775391 10.02353516 5 11 C4.34 9.68 3.68 8.36 3 7 C2.34 7 1.68 7 1 7 C0.67 4.69 0.34 2.38 0 0 Z " fill="#CBCBCB" transform="translate(121,53)"/>
<path d="M0 0 C0.5775 0.45375 1.155 0.9075 1.75 1.375 C3.7800333 2.84113516 5.73539843 3.94857784 8 5 C7.01 5 6.02 5 5 5 C5 5.66 5 6.32 5 7 C1.75791433 6.64950425 0.38472296 6.43778819 -1.8125 3.9375 C-2.4003125 2.9784375 -2.4003125 2.9784375 -3 2 C-2.01 1.34 -1.02 0.68 0 0 Z " fill="#C5C5C5" transform="translate(181,28)"/>
<path d="M0 0 C1.44715727 3.87186448 0.5441918 6.8232328 -0.4375 10.75 C-0.72496094 11.92046875 -1.01242188 13.0909375 -1.30859375 14.296875 C-1.53675781 15.18890625 -1.76492187 16.0809375 -2 17 C-3.125 13.25 -3.125 13.25 -2 11 C-2.66 11 -3.32 11 -4 11 C-3.67 7.7 -3.34 4.4 -3 1 C-2.34 1.66 -1.68 2.32 -1 3 C-0.67 2.01 -0.34 1.02 0 0 Z " fill="#636363" transform="translate(200,131)"/>
<path d="M0 0 C4.875 1.75 4.875 1.75 6 4 C5.67 4.66 5.34 5.32 5 6 C5.66 6 6.32 6 7 6 C7 6.66 7 7.32 7 8 C3.5625 7.1875 3.5625 7.1875 0 6 C-1 3 -1 3 0 0 Z " fill="#BBBBBB" transform="translate(107,121)"/>
<path d="M0 0 C-1.1858237 3.37503669 -2.27573689 5.64722731 -5 8 C-5.33 7.34 -5.66 6.68 -6 6 C-6.66 5.67 -7.32 5.34 -8 5 C-7.625 3.0625 -7.625 3.0625 -7 1 C-4.53721199 -0.231394 -2.7204945 -0.07159196 0 0 Z " fill="#ACACAC" transform="translate(207,144)"/>
<path d="M0 0 C0.99 0.33 1.98 0.66 3 1 C3.6875 3.0625 3.6875 3.0625 4 5 C5.65 5.33 7.3 5.66 9 6 C8.67 6.99 8.34 7.98 8 9 C7.01 9.33 6.02 9.66 5 10 C5 9.01 5 8.02 5 7 C3.68 6.67 2.36 6.34 1 6 C0.67 4.02 0.34 2.04 0 0 Z " fill="#E8E8E7" transform="translate(171,141)"/>
<path d="M0 0 C3 1.75 3 1.75 6 4 C6 5.32 6 6.64 6 8 C3.03824877 7.38722388 1.61941217 6.74627478 -1 5 C-0.67 3.35 -0.34 1.7 0 0 Z " fill="#DEDEDE" transform="translate(129,110)"/>
<path d="M0 0 C2.31 0 4.62 0 7 0 C7 3 7 3 5 6 C1.875 6.1875 1.875 6.1875 -1 6 C-1 5.01 -1 4.02 -1 3 C0.98 3 2.96 3 5 3 C5 2.34 5 1.68 5 1 C3.35 1 1.7 1 0 1 C0 0.67 0 0.34 0 0 Z " fill="#D7D7D7" transform="translate(169,166)"/>
<path d="M0 0 C0 0.99 0 1.98 0 3 C-2.88211302 3.96070434 -4.69850044 4.10581883 -7.6875 4.0625 C-8.89986328 4.04896484 -8.89986328 4.04896484 -10.13671875 4.03515625 C-11.05904297 4.01775391 -11.05904297 4.01775391 -12 4 C-11 2 -11 2 -8.25 0.875 C-5.29813104 0.08026605 -3.02780163 -0.17810598 0 0 Z " fill="#BDBDBD" transform="translate(233,158)"/>
<path d="M0 0 C0 3.57575896 -1.08840607 5.05295935 -3 8 C-4.65 7.67 -6.3 7.34 -8 7 C-6.625 5 -6.625 5 -5 3 C-4.34 3 -3.68 3 -3 3 C-3 2.34 -3 1.68 -3 1 C-2.01 0.67 -1.02 0.34 0 0 Z " fill="#C2C2C2" transform="translate(213,146)"/>
<path d="M0 0 C7.57142857 3 7.57142857 3 10 6 C7.1875 6.625 7.1875 6.625 4 7 C1 5 1 5 0.3125 2.375 C0.209375 1.59125 0.10625 0.8075 0 0 Z " fill="#AFAFAF" transform="translate(147,144)"/>
<path d="M0 0 C0.66 0.99 1.32 1.98 2 3 C1.125 5.6875 1.125 5.6875 0 8 C-0.33 7.34 -0.66 6.68 -1 6 C-2.98 6.99 -2.98 6.99 -5 8 C-3.375 2.25 -3.375 2.25 0 0 Z " fill="#BDBDBD" transform="translate(211,131)"/>
<path d="M0 0 C2.64465038 3.1254959 3.84414715 6.08788267 5 10 C4.34 9.67 3.68 9.34 3 9 C3 10.65 3 12.3 3 14 C2.34 13.67 1.68 13.34 1 13 C0.26924352 10.6859378 -0.40138258 8.35171131 -1 6 C-0.34 6 0.32 6 1 6 C0.67 4.02 0.34 2.04 0 0 Z " fill="#646464" transform="translate(134,70)"/>
<path d="M0 0 C-1.93254772 2.0245738 -3.63158688 3.42105792 -6 5 C-8.125 4.75 -8.125 4.75 -10 4 C-10.33 3.34 -10.66 2.68 -11 2 C-7.36576791 -0.32590854 -4.22911669 -0.16265833 0 0 Z " fill="#CECECE" transform="translate(215,158)"/>
<path d="M0 0 C0.33 0 0.66 0 1 0 C1.28875 1.0725 1.5775 2.145 1.875 3.25 C2.80789174 6.82387571 2.80789174 6.82387571 4.1875 9.1875 C5.22334675 11.49823506 4.83438967 12.66370893 4 15 C1.08634787 11.19958418 -0.13131548 9.19208393 -0.0625 4.375 C-0.05347656 3.55773437 -0.04445312 2.74046875 -0.03515625 1.8984375 C-0.02355469 1.27195313 -0.01195312 0.64546875 0 0 Z " fill="#A9A9A9" transform="translate(181,138)"/>
<path d="M0 0 C0.66 0 1.32 0 2 0 C4.09350689 3.4019487 4.17942163 6.05272412 4 10 C3.01 10 2.02 10 1 10 C0.67 6.7 0.34 3.4 0 0 Z " fill="#A8A8A8" transform="translate(175,118)"/>
<path d="M0 0 C0.66 0 1.32 0 2 0 C1.88557539 1.60495567 1.75805306 3.20898119 1.625 4.8125 C1.55539063 5.70582031 1.48578125 6.59914063 1.4140625 7.51953125 C1 10 1 10 -1 13 C-2.0070238 7.96488101 -1.97387813 4.76052962 0 0 Z " fill="#C8C8C8" transform="translate(205,102)"/>
<path d="M0 0 C0.99 0 1.98 0 3 0 C3.33 1.65 3.66 3.3 4 5 C2.35 5.66 0.7 6.32 -1 7 C-1 6.01 -1 5.02 -1 4 C-1.99 3.67 -2.98 3.34 -4 3 C-2.68 2.67 -1.36 2.34 0 2 C0 1.34 0 0.68 0 0 Z " fill="#D5D5D5" transform="translate(224,147)"/>
<path d="M0 0 C0.66 1.32 1.32 2.64 2 4 C0.25 5.5625 0.25 5.5625 -2 7 C-4.25 6.6875 -4.25 6.6875 -6 6 C-2.25 1.125 -2.25 1.125 0 0 Z " fill="#D9D9D9" transform="translate(302,103)"/>
<path d="M0 0 C0 3.69418201 -1.28179295 5.77836178 -3 9 C-3.33 7.68 -3.66 6.36 -4 5 C-4.66 5 -5.32 5 -6 5 C-5.67 3.68 -5.34 2.36 -5 1 C-4.01 1 -3.02 1 -2 1 C-1.34 0.67 -0.68 0.34 0 0 Z " fill="#8E8E8E" transform="translate(233,97)"/>
<path d="M0 0 C0.33 0.99 0.66 1.98 1 3 C1.66 3 2.32 3 3 3 C3.99 4.485 3.99 4.485 5 6 C5.99 6.66 6.98 7.32 8 8 C8 8.66 8 9.32 8 10 C6.68 9.67 5.36 9.34 4 9 C4 8.34 4 7.68 4 7 C3.01 7 2.02 7 1 7 C0.67 4.69 0.34 2.38 0 0 Z " fill="#E5E5E5" transform="translate(174,153)"/>
<path d="M0 0 C0.33 0.66 0.66 1.32 1 2 C2.32 2.33 3.64 2.66 5 3 C1.7 3.66 -1.6 4.32 -5 5 C-5.33 4.34 -5.66 3.68 -6 3 C-5.67 2.34 -5.34 1.68 -5 1 C-2.4375 0.375 -2.4375 0.375 0 0 Z " fill="#B4B4B4" transform="translate(254,151)"/>
<path d="M0 0 C0.93065133 2.60582371 1.14917407 3.64198224 0.0625 6.25 C-0.4634375 7.11625 -0.4634375 7.11625 -1 8 C-1.99 8 -2.98 8 -4 8 C-3.67 5.69 -3.34 3.38 -3 1 C-2.01 0.67 -1.02 0.34 0 0 Z " fill="#909090" transform="translate(205,112)"/>
<path d="M0 0 C0.33 0.99 0.66 1.98 1 3 C0.2884375 3.556875 0.2884375 3.556875 -0.4375 4.125 C-2.52205802 6.62646962 -2.64621491 8.81593418 -3 12 C-5 9 -5 9 -4.875 6 C-3.88530089 2.60674592 -2.99739756 1.74042439 0 0 Z " fill="#AEAEAE" transform="translate(64,92)"/>
<path d="M0 0 C1 3 1 3 0.22265625 4.82421875 C-0.8515625 6.54947917 -1.92578125 8.27473958 -3 10 C-3.99 9.01 -4.98 8.02 -6 7 C-5.34 5.02 -4.68 3.04 -4 1 C-3.34 1.66 -2.68 2.32 -2 3 C-1.34 2.01 -0.68 1.02 0 0 Z " fill="#737373" transform="translate(248,70)"/>
<path d="M0 0 C1.89213369 2.38573379 3.02391783 4.07175348 4 7 C3.34 7 2.68 7 2 7 C2 7.66 2 8.32 2 9 C1.01 9 0.02 9 -1 9 C-0.67 8.01 -0.34 7.02 0 6 C-0.66 5.34 -1.32 4.68 -2 4 C-1.34 2.68 -0.68 1.36 0 0 Z " fill="#CFCFCF" transform="translate(183,148)"/>
<path d="M0 0 C2.97 0 5.94 0 9 0 C9.33 0.66 9.66 1.32 10 2 C6.7 2.33 3.4 2.66 0 3 C0 2.01 0 1.02 0 0 Z " fill="#DADADA" transform="translate(255,150)"/>
<path d="M0 0 C1.32 0 2.64 0 4 0 C3.4140625 6.15234375 3.4140625 6.15234375 3 8 C2.01 8.495 2.01 8.495 1 9 C0.67 6.03 0.34 3.06 0 0 Z " fill="#B7B7B7" transform="translate(200,120)"/>
<path d="M0 0 C0.66 0.33 1.32 0.66 2 1 C1.67 1.99 1.34 2.98 1 4 C1.66 4.33 2.32 4.66 3 5 C1.35 5.66 -0.3 6.32 -2 7 C-2.66 6.34 -3.32 5.68 -4 5 C-2.68 3.35 -1.36 1.7 0 0 Z " fill="#A7A7A7" transform="translate(306,100)"/>
<path d="M0 0 C1.98 0.495 1.98 0.495 4 1 C4 2.98 4 4.96 4 7 C2.68 6.67 1.36 6.34 0 6 C0.33 5.67 0.66 5.34 1 5 C0.34 4.67 -0.32 4.34 -1 4 C-0.67 2.68 -0.34 1.36 0 0 Z " fill="#B1B1B1" transform="translate(170,158)"/>
<path d="M0 0 C0.66 0 1.32 0 2 0 C2 0.66 2 1.32 2 2 C4.97 2.495 4.97 2.495 8 3 C8 3.66 8 4.32 8 5 C5.69 5 3.38 5 1 5 C1 4.34 1 3.68 1 3 C0.34 2.67 -0.32 2.34 -1 2 C-0.67 1.34 -0.34 0.68 0 0 Z " fill="#EAEAEA" transform="translate(122,150)"/>
<path d="M0 0 C0.33 0 0.66 0 1 0 C1.125 2.875 1.125 2.875 1 6 C0.34 6.66 -0.32 7.32 -1 8 C-1.99 8 -2.98 8 -4 8 C-3.67 6.35 -3.34 4.7 -3 3 C-2.01 3 -1.02 3 0 3 C0 2.01 0 1.02 0 0 Z " fill="#E8E8E8" transform="translate(201,147)"/>
<path d="M0 0 C1.32 0 2.64 0 4 0 C4 1.32 4 2.64 4 4 C2.35 4.33 0.7 4.66 -1 5 C-1.33 4.34 -1.66 3.68 -2 3 C-1.34 2.01 -0.68 1.02 0 0 Z " fill="#E3E3E3" transform="translate(236,141)"/>
<path d="M0 0 C0.33 0 0.66 0 1 0 C2.46845421 5.47332932 1.44038726 8.11922548 -1 13 C-1.66 12.34 -2.32 11.68 -3 11 C-2.01 7.37 -1.02 3.74 0 0 Z " fill="#EFEFEF" transform="translate(203,16)"/>
<path d="M0 0 C1.98 0 3.96 0 6 0 C6.66 1.32 7.32 2.64 8 4 C5.69 3.67 3.38 3.34 1 3 C0.67 2.01 0.34 1.02 0 0 Z " fill="#D7D7D7" transform="translate(98,145)"/>
<path d="M0 0 C0.99 0 1.98 0 3 0 C2.75 2.375 2.75 2.375 2 5 C-0.0625 6.3125 -0.0625 6.3125 -2 7 C-1.125 1.125 -1.125 1.125 0 0 Z " fill="#E5E5E5" transform="translate(231,93)"/>
<path d="M0 0 C2.2477975 2.05233685 3.0022242 3.00667261 4 6 C3.01 6 2.02 6 1 6 C0.67 6.99 0.34 7.98 0 9 C0 8.01 0 7.02 0 6 C-0.66 6 -1.32 6 -2 6 C-1.33333333 4 -0.66666667 2 0 0 Z " fill="#9A9A9A" transform="translate(145,90)"/>
<path d="M0 0 C1.65 0 3.3 0 5 0 C4.34 3.3 3.68 6.6 3 10 C2.67 10 2.34 10 2 10 C1.7834375 8.63875 1.7834375 8.63875 1.5625 7.25 C1.13590527 4.78523044 0.64925779 2.41152893 0 0 Z " fill="#8F8F8F" transform="translate(175,13)"/>
<path d="M0 0 C1.4800841 0.11362262 2.95910074 0.24122908 4.4375 0.375 C5.26121094 0.44460937 6.08492187 0.51421875 6.93359375 0.5859375 C7.95646484 0.79089844 7.95646484 0.79089844 9 1 C9.33 1.66 9.66 2.32 10 3 C7.03 3 4.06 3 1 3 C0.67 2.01 0.34 1.02 0 0 Z " fill="#DCDCDC" transform="translate(148,159)"/>
<path d="M0 0 C0.99 0.99 1.98 1.98 3 3 C2.34 4.65 1.68 6.3 1 8 C0.34 8 -0.32 8 -1 8 C-1.33 6.35 -1.66 4.7 -2 3 C-1.34 2.67 -0.68 2.34 0 2 C0 1.34 0 0.68 0 0 Z " fill="#989898" transform="translate(169,132)"/>
<path d="M0 0 C1.98 0.495 1.98 0.495 4 1 C4.33 2.32 4.66 3.64 5 5 C2.83125748 4.49396008 1.00032373 4.00016187 -1 3 C-0.67 2.01 -0.34 1.02 0 0 Z " fill="#D7D7D7" transform="translate(102,119)"/>
<path d="M0 0 C1.32 0.33 2.64 0.66 4 1 C4 1.66 4 2.32 4 3 C3.34 3 2.68 3 2 3 C2 3.66 2 4.32 2 5 C-2.875 3.25 -2.875 3.25 -4 1 C-3.01 1.33 -2.02 1.66 -1 2 C-0.67 1.34 -0.34 0.68 0 0 Z " fill="#C4C4C4" transform="translate(137,139)"/>
<path d="M0 0 C0.33 0 0.66 0 1 0 C1.96891192 5.37305699 1.96891192 5.37305699 2 8 C0.5625 10 0.5625 10 -1 11 C-1.33 8.69 -1.66 6.38 -2 4 C-1.34 4 -0.68 4 0 4 C0 2.68 0 1.36 0 0 Z " fill="#646464" transform="translate(179,124)"/>
<path d="M0 0 C0.99 0 1.98 0 3 0 C2.67 1.65 2.34 3.3 2 5 C0.68 5 -0.64 5 -2 5 C-1.34 3.35 -0.68 1.7 0 0 Z " fill="#DCDCDC" transform="translate(241,117)"/>
<path d="M0 0 C1.98 0.99 3.96 1.98 6 3 C5.01 3.495 5.01 3.495 4 4 C4.33 4.99 4.66 5.98 5 7 C3.0625 6.3125 3.0625 6.3125 1 5 C0.25 2.375 0.25 2.375 0 0 Z " fill="#A8A8A8" transform="translate(86,109)"/>
<path d="M0 0 C0.80824219 0.10183594 1.61648437 0.20367187 2.44921875 0.30859375 C3.06410156 0.39238281 3.67898437 0.47617188 4.3125 0.5625 C4.3125 0.8925 4.3125 1.2225 4.3125 1.5625 C2.68925914 1.78412329 1.063779 1.98939803 -0.5625 2.1875 C-1.91988281 2.36152344 -1.91988281 2.36152344 -3.3046875 2.5390625 C-4.09101563 2.54679688 -4.87734375 2.55453125 -5.6875 2.5625 C-6.3475 1.9025 -7.0075 1.2425 -7.6875 0.5625 C-4.59271121 -0.46909626 -3.16118607 -0.41232862 0 0 Z " fill="#818181" transform="translate(221.6875,161.4375)"/>
<path d="M0 0 C1.32 0.33 2.64 0.66 4 1 C3.67 1.99 3.34 2.98 3 4 C2.01 4.33 1.02 4.66 0 5 C-0.66 4.34 -1.32 3.68 -2 3 C-1.34 2.01 -0.68 1.02 0 0 Z " fill="#E8E8E8" transform="translate(245,153)"/>
<path d="M0 0 C0.66 0 1.32 0 2 0 C2 1.65 2 3.3 2 5 C0.35 5.33 -1.3 5.66 -3 6 C-2 4 -1 2 0 0 Z " fill="#F7F7F7" transform="translate(253,131)"/>
<path d="M0 0 C1.65 1.65 3.3 3.3 5 5 C3.35 5.33 1.7 5.66 0 6 C-0.99 4.68 -1.98 3.36 -3 2 C-2.01 2 -1.02 2 0 2 C0 1.34 0 0.68 0 0 Z " fill="#D6D6D5" transform="translate(148,128)"/>
<path d="M0 0 C0.33 0.66 0.66 1.32 1 2 C1.99 2.33 2.98 2.66 4 3 C3.01 3.99 2.02 4.98 1 6 C0.67 5.34 0.34 4.68 0 4 C-0.99 4.33 -1.98 4.66 -3 5 C-2.67 4.01 -2.34 3.02 -2 2 C-1.34 2 -0.68 2 0 2 C0 1.34 0 0.68 0 0 Z " fill="#A8A8A8" transform="translate(250,108)"/>
<path d="M0 0 C0.33 0.99 0.66 1.98 1 3 C-1.97 3 -4.94 3 -8 3 C-6.18317104 -0.63365792 -3.70249681 -0.09743413 0 0 Z " fill="#F9F9F9" transform="translate(209,163)"/>
<path d="M0 0 C-3.75 3 -3.75 3 -6 3 C-6 2.34 -6 1.68 -6 1 C-6.66 0.67 -7.32 0.34 -8 0 C-4.71023192 -1.09658936 -3.28696233 -0.79953138 0 0 Z " fill="#A1A1A1" transform="translate(281,146)"/>
<path d="M0 0 C0.99 0.33 1.98 0.66 3 1 C2.34 2.32 1.68 3.64 1 5 C-0.32 4.34 -1.64 3.68 -3 3 C-2.01 2.01 -1.02 1.02 0 0 Z " fill="#CACACA" transform="translate(228,130)"/>
<path d="M0 0 C0.66 0.33 1.32 0.66 2 1 C1.34 2.65 0.68 4.3 0 6 C-0.33 5.01 -0.66 4.02 -1 3 C-1.66 3 -2.32 3 -3 3 C-3 3.66 -3 4.32 -3 5 C-3.66 4.67 -4.32 4.34 -5 4 C-3.36587557 2.29159719 -2.13093906 1.06546953 0 0 Z " fill="#A6A6A6" transform="translate(223,112)"/>
<path d="M0 0 C1.32 0 2.64 0 4 0 C4.33 1.65 4.66 3.3 5 5 C3.68 4.67 2.36 4.34 1 4 C0.67 2.68 0.34 1.36 0 0 Z " fill="#C8C8C8" transform="translate(82,108)"/>
<path d="M0 0 C2 2 2 2 2.125 5.125 C2.08375 6.07375 2.0425 7.0225 2 8 C1.01 8 0.02 8 -1 8 C-0.67 5.36 -0.34 2.72 0 0 Z " fill="#D9D9D9" transform="translate(171,100)"/>
<path d="M0 0 C1.31625194 2.63250388 0.74813658 3.80179056 0.0625 6.625 C-0.13214844 7.44226563 -0.32679688 8.25953125 -0.52734375 9.1015625 C-0.68332031 9.72804688 -0.83929688 10.35453125 -1 11 C-1.33 10.34 -1.66 9.68 -2 9 C-2.66 8.67 -3.32 8.34 -4 8 C-2.68 5.36 -1.36 2.72 0 0 Z " fill="#C1C1C1" transform="translate(201,21)"/>
<path d="M0 0 C5.75 0.75 5.75 0.75 8 3 C5.69 3 3.38 3 1 3 C0.67 2.01 0.34 1.02 0 0 Z " fill="#EBEBEB" transform="translate(90,113)"/>
<path d="M0 0 C0.99 0 1.98 0 3 0 C3.33 1.98 3.66 3.96 4 6 C3.01 5.67 2.02 5.34 1 5 C0.67 3.35 0.34 1.7 0 0 Z " fill="#E1E1E1" transform="translate(131,70)"/>
</svg>
